<svg width="800" height="400" viewBox="0 0 800 400" fill="none" xmlns="http://www.w3.org/2000/svg">
<rect x="0.5" y="0.5" width="799" height="399" stroke="black"/>
<rect x="463.5" y="138.5" width="319" height="199" fill="#FDFDFD" stroke="black"/>
<line x1="623.5" y1="138" x2="623.5" y2="338" stroke="black" stroke-dasharray="2 2"/>
<path d="M676.016 253.127C677.067 253.857 677.618 254.147 677.823 254.244C678.028 254.348 680.306 255.367 680.719 255.504C681.127 255.642 682.489 256.358 682.865 256.492C683.162 256.601 683.493 256.791 683.689 256.902C683.822 257.084 683.933 257.265 683.916 257.346C683.907 257.551 683.817 257.744 683.666 257.883C683.433 258.085 682.357 258.519 681.983 258.654C681.643 258.786 679.969 259.476 679.527 259.645C679.371 259.706 678.792 259.982 678.071 260.332C677.605 260.165 677.039 259.961 676.834 259.866C676.458 259.693 675.061 258.978 674.587 258.57C674.105 258.16 673.624 257.667 673.428 257.377C673.135 256.941 672.939 255.457 672.986 254.891C673.011 254.553 673.075 249.992 673.075 249.992C673.075 249.992 674.429 252.029 676.016 253.127ZM672.601 248.902C672.58 248.862 671.106 246.064 668.975 245.872C666.765 245.669 665.246 246.539 664.35 248.531C664.006 249.293 663.79 250.218 663.634 251.388H667.252V279.653H671.527L664.149 287.151C664.279 288.697 664.409 289.92 664.533 290.642C664.556 290.774 664.549 290.91 664.514 291.04C664.478 291.17 664.415 291.29 664.328 291.393C664.241 291.495 664.133 291.577 664.01 291.634C663.888 291.69 663.755 291.718 663.621 291.717C663.403 291.717 663.193 291.64 663.027 291.5C662.861 291.36 662.75 291.166 662.712 290.952C662.579 290.162 662.436 288.799 662.295 287.065L655 279.653H659.173V251.386H661.774C661.949 249.926 662.214 248.77 662.664 247.771C663.888 245.054 666.124 243.767 669.137 244.035C672.287 244.318 674.16 247.909 674.237 248.059C674.333 248.274 674.344 248.518 674.266 248.741C674.188 248.963 674.027 249.147 673.818 249.255C673.608 249.363 673.365 249.387 673.139 249.321C672.912 249.255 672.72 249.105 672.601 248.902ZM682.053 294.271C681.44 294.422 680.8 294.552 680.095 294.552C679.008 294.552 677.77 294.249 676.249 293.258C673.597 291.535 673.618 287.488 673.62 287.317C673.618 287.195 673.641 287.074 673.688 286.961C673.734 286.848 673.803 286.746 673.89 286.661C673.978 286.576 674.081 286.509 674.195 286.466C674.309 286.422 674.431 286.402 674.553 286.407C674.797 286.41 675.03 286.51 675.201 286.685C675.372 286.86 675.467 287.095 675.465 287.339C675.465 287.371 675.457 290.546 677.253 291.712C679.156 292.949 680.309 292.803 681.614 292.483C681.734 292.448 681.859 292.438 681.982 292.453C682.106 292.468 682.225 292.508 682.332 292.57C682.44 292.632 682.534 292.716 682.609 292.815C682.683 292.914 682.737 293.028 682.766 293.149C682.796 293.269 682.801 293.395 682.781 293.517C682.76 293.64 682.716 293.757 682.649 293.862C682.582 293.967 682.495 294.057 682.393 294.128C682.29 294.198 682.175 294.247 682.053 294.271ZM685 276.814C685 277.361 684.954 278.589 684.86 278.997C684.768 279.407 684.59 279.881 684.394 280.099C684.121 280.402 683.172 281.013 682.592 281.22C682.282 281.329 681.63 281.613 681.028 281.867C680.582 282.053 680.134 282.236 679.685 282.414C677.669 283.228 675.642 284.052 675.382 284.171C674.833 284.443 673.879 284.962 673.567 285.397C673.441 285.585 673.302 285.78 673.21 286.036C673.099 285.48 673.018 284.918 672.966 284.353C672.932 283.766 673.011 282.17 673.146 281.54C673.259 281 673.507 280.131 674.009 279.629C674.218 279.424 674.705 279.061 675.288 278.666C676.584 278.025 679.42 276.626 679.728 276.511C680.178 276.34 681.857 275.648 682.181 275.522C682.581 275.366 683.61 274.984 684.018 274.66C684.233 274.466 684.38 274.207 684.437 273.923C684.561 274.117 684.697 274.354 684.776 274.544C685.02 275.162 685 276.274 685 276.814ZM673.663 272.518C673.661 272.494 673.678 272.4 673.699 272.167C673.733 271.796 673.844 271.672 674.06 271.343C674.154 271.16 675.175 270.521 675.651 270.312C675.796 270.247 676.599 269.916 677.656 269.489C677.729 269.515 677.789 269.543 677.819 269.556C678.024 269.66 680.302 270.681 680.716 270.816C681.124 270.952 682.485 271.67 682.861 271.806C683.16 271.911 683.493 272.105 683.687 272.216C683.822 272.398 683.935 272.577 683.913 272.656C683.909 272.757 683.884 272.857 683.841 272.95C683.799 273.042 683.738 273.125 683.662 273.193C683.429 273.397 682.354 273.829 681.977 273.968C681.643 274.098 679.961 274.792 679.525 274.956C679.369 275.018 678.788 275.296 678.066 275.646C677.599 275.477 677.037 275.273 676.832 275.177C676.456 275.006 675.059 274.294 674.585 273.884C674.406 273.731 674.231 273.575 674.06 273.413C673.919 273.201 673.753 272.936 673.722 272.797C673.694 272.706 673.675 272.613 673.663 272.518ZM685 261.481C685 262.028 684.954 263.253 684.86 263.661C684.768 264.069 684.59 264.544 684.394 264.763C684.212 264.966 683.717 265.308 683.237 265.573C681.282 266.363 675.822 268.567 675.38 268.77C674.831 269.041 673.881 269.558 673.565 269.991C673.434 270.186 673.291 270.386 673.201 270.656C673.094 270.115 673.016 269.568 672.966 269.018C672.932 268.428 673.011 266.839 673.146 266.199C673.259 265.669 673.507 264.795 674.009 264.296C674.298 264.036 674.605 263.797 674.929 263.582C675.811 263.142 679.471 261.334 679.824 261.201C680.272 261.026 681.953 260.338 682.276 260.212C682.675 260.054 683.704 259.672 684.11 259.352C684.303 259.184 684.443 258.963 684.512 258.716C684.61 258.884 684.71 259.059 684.774 259.209C685.02 259.824 685 260.937 685 261.481Z" fill="#6C9CCC"/>
<path d="M733.601 248.902C733.58 248.862 732.106 246.064 729.975 245.872C727.765 245.669 726.246 246.539 725.35 248.531C725.006 249.293 724.79 250.218 724.634 251.388H728.252V268.653H732.527L725.149 276.151C725.279 277.697 725.409 278.92 725.533 279.642C725.556 279.774 725.549 279.91 725.514 280.04C725.478 280.17 725.415 280.29 725.328 280.393C725.241 280.495 725.133 280.577 725.01 280.634C724.888 280.69 724.755 280.718 724.621 280.717C724.403 280.717 724.193 280.64 724.027 280.5C723.861 280.36 723.75 280.166 723.712 279.952C723.579 279.162 723.436 277.799 723.295 276.065L716 268.653H720.173V251.386H722.774C722.949 249.926 723.214 248.77 723.664 247.771C724.888 245.054 727.124 243.767 730.137 244.035C733.287 244.318 735.16 247.909 735.237 248.059C735.333 248.274 735.344 248.518 735.266 248.741C735.188 248.963 735.027 249.147 734.818 249.255C734.608 249.363 734.365 249.387 734.139 249.321C733.912 249.255 733.72 249.105 733.601 248.902Z" fill="#FF6666"/>
<path d="M742.163 308.727C742.868 308.727 743.508 308.597 744.121 308.446C744.243 308.422 744.358 308.373 744.461 308.303C744.563 308.232 744.651 308.142 744.717 308.037C744.784 307.932 744.829 307.815 744.849 307.692C744.869 307.57 744.864 307.444 744.835 307.324C744.805 307.203 744.751 307.089 744.677 306.99C744.602 306.89 744.508 306.807 744.401 306.745C744.293 306.683 744.174 306.643 744.051 306.628C743.927 306.613 743.802 306.623 743.683 306.658C742.377 306.978 741.225 307.124 739.321 305.887C737.531 304.725 737.533 301.566 737.533 301.514C737.535 301.27 737.44 301.035 737.269 300.86C737.098 300.685 736.865 300.585 736.621 300.582C736.499 300.577 736.377 300.597 736.264 300.64C736.15 300.684 736.046 300.751 735.959 300.836C735.871 300.921 735.802 301.023 735.756 301.136C735.709 301.249 735.686 301.37 735.688 301.492C735.686 301.663 735.666 305.71 738.317 307.433C739.839 308.424 741.076 308.727 742.163 308.727Z" fill="#FF6666"/>
<path d="M746.875 279.078C746.969 278.67 747.014 277.442 747.014 276.894C747.014 276.355 747.035 275.243 746.79 274.625C746.711 274.435 746.576 274.198 746.452 274.004C746.394 274.288 746.247 274.546 746.032 274.741C745.624 275.065 744.596 275.446 744.195 275.602C743.872 275.728 742.192 276.421 741.743 276.592C741.434 276.706 738.598 278.106 737.303 278.747C736.72 279.142 736.232 279.505 736.024 279.71C735.522 280.212 735.273 281.081 735.161 281.62C735.025 282.25 734.946 283.847 734.98 284.434C735.032 284.999 735.114 285.561 735.224 286.117C735.317 285.861 735.456 285.666 735.582 285.478C735.894 285.043 736.847 284.524 737.397 284.251C737.656 284.133 739.683 283.309 741.699 282.495C742.149 282.316 742.596 282.134 743.042 281.948C743.644 281.694 744.297 281.41 744.607 281.301C745.186 281.094 746.136 280.483 746.408 280.18C746.604 279.962 746.783 279.488 746.875 279.078Z" fill="#FF6666"/>
<path d="M735.73 272.133C735.71 272.366 735.693 272.46 735.695 272.484C735.706 272.579 735.726 272.672 735.753 272.763C735.785 272.902 735.95 273.167 736.091 273.38C736.262 273.541 736.437 273.698 736.616 273.85C737.09 274.26 738.487 274.973 738.863 275.144C739.068 275.24 739.631 275.443 740.097 275.612C740.819 275.262 741.4 274.984 741.556 274.922C741.993 274.758 743.674 274.064 744.009 273.934C744.385 273.795 745.461 273.363 745.694 273.16C745.769 273.091 745.83 273.008 745.873 272.916C745.916 272.823 745.94 272.723 745.944 272.622C745.967 272.543 745.854 272.364 745.718 272.182C745.525 272.071 745.192 271.877 744.893 271.772C744.517 271.636 743.155 270.918 742.747 270.782C742.333 270.647 740.056 269.626 739.851 269.522C739.821 269.509 739.76 269.481 739.687 269.455C738.63 269.882 737.682 270.278 737.682 270.278C737.682 270.278 736.185 271.127 736.091 271.309C735.875 271.638 735.764 271.762 735.73 272.133Z" fill="#FF6666"/>
<path d="M746.694 264.345C746.788 263.937 746.833 262.713 746.833 262.166C746.833 261.622 746.854 260.509 746.608 259.894C746.544 259.743 746.444 259.568 746.346 259.401C746.277 259.648 746.137 259.868 745.944 260.037C745.538 260.356 744.509 260.738 744.11 260.896C743.787 261.022 742.106 261.71 741.658 261.885C741.304 262.019 737.645 263.826 736.763 264.266C736.439 264.482 736.132 264.721 735.843 264.981C735.341 265.479 735.093 266.354 734.98 266.884C734.845 267.523 734.766 269.113 734.799 269.703C734.849 270.253 734.928 270.799 735.035 271.341C735.125 271.07 735.268 270.871 735.399 270.675C735.715 270.243 736.665 269.726 737.214 269.455C737.645 269.257 742.843 267.158 744.917 266.32L745.071 266.258C745.551 265.993 746.046 265.65 746.228 265.447C746.424 265.229 746.602 264.753 746.694 264.345Z" fill="#FF6666"/>
<path d="M740.253 254.951C740.048 254.854 739.497 254.564 738.446 253.834C736.859 252.736 735.505 250.699 735.505 250.699C735.505 250.699 735.441 255.26 735.416 255.598C735.369 256.164 735.565 257.648 735.858 258.085C736.054 258.374 736.535 258.867 737.017 259.277C737.491 259.685 738.888 260.4 739.264 260.573C739.469 260.668 740.033 260.871 740.499 261.038L740.501 261.039C741.222 260.689 741.801 260.413 741.957 260.353C742.399 260.183 744.073 259.493 744.413 259.362C744.787 259.226 745.863 258.792 746.096 258.59C746.248 258.451 746.337 258.258 746.346 258.053C746.363 257.972 746.252 257.791 746.119 257.609C745.923 257.498 745.592 257.308 745.295 257.199C744.919 257.065 743.557 256.349 743.149 256.211C742.736 256.074 740.458 255.055 740.253 254.951Z" fill="#FF6666"/>
<path d="M746.868 293.875C746.962 293.466 747.008 292.238 747.008 291.691C747.008 291.151 747.028 290.04 746.784 289.421C746.705 289.231 746.569 288.994 746.445 288.801C746.388 289.085 746.241 289.343 746.026 289.538C745.618 289.861 744.589 290.243 744.189 290.399C743.865 290.525 742.186 291.217 741.736 291.388C741.428 291.503 738.592 292.902 737.296 293.544C736.713 293.938 736.226 294.301 736.017 294.506C735.515 295.009 735.267 295.877 735.154 296.417C735.019 297.047 734.94 298.644 734.974 299.231C735.026 299.795 735.107 300.357 735.218 300.914C735.31 300.658 735.449 300.462 735.575 300.274C735.887 299.84 736.841 299.321 737.39 299.048C737.65 298.93 739.677 298.106 741.693 297.292C742.142 297.113 742.59 296.931 743.036 296.744C743.638 296.49 744.29 296.206 744.6 296.097C745.18 295.891 746.129 295.279 746.402 294.977C746.598 294.758 746.776 294.285 746.868 293.875Z" fill="#FF6666"/>
<path d="M735.724 286.929C735.703 287.163 735.686 287.257 735.688 287.281C735.7 287.375 735.719 287.468 735.746 287.559C735.778 287.699 735.944 287.964 736.085 288.176C736.256 288.337 736.431 288.494 736.61 288.646C737.084 289.056 738.481 289.769 738.857 289.94C739.062 290.036 739.624 290.239 740.091 290.409C740.813 290.059 741.394 289.78 741.55 289.718C741.986 289.555 743.668 288.861 744.002 288.731C744.378 288.592 745.454 288.159 745.687 287.956C745.763 287.888 745.823 287.805 745.866 287.712C745.909 287.62 745.933 287.52 745.937 287.418C745.96 287.339 745.847 287.161 745.712 286.978C745.518 286.867 745.185 286.674 744.886 286.568C744.51 286.433 743.149 285.715 742.74 285.579C742.327 285.444 740.049 284.423 739.844 284.319C739.814 284.306 739.754 284.278 739.681 284.251C738.624 284.678 737.676 285.075 737.676 285.075C737.676 285.075 736.179 285.923 736.085 286.106C735.869 286.435 735.758 286.559 735.724 286.929Z" fill="#FF6666"/>
<path d="M686.655 213.461C685.083 215.557 682.463 216.605 677.397 216.605C676.524 216.605 676 215.906 676 215.208C676 214.334 676.699 213.81 677.397 213.81C681.59 213.81 683.686 213.112 684.559 211.365L686.655 213.461Z" fill="#FFB266"/>
<path d="M695.039 188.483C695.738 187.26 697.135 186.387 698.707 185.863C701.153 184.989 704.297 185.339 704.821 187.26C704.996 187.959 705.694 188.308 706.393 188.133C707.092 187.959 707.441 187.26 707.266 186.561C706.044 182.893 701.677 182.369 698.009 183.592C696.087 184.116 694.515 185.164 693.642 186.387C693.293 186.911 692.943 187.435 692.769 187.959L695.039 188.483Z" fill="#FFB266"/>
<path d="M713.904 204.553C714.428 204.378 714.777 204.203 714.952 204.029C715.127 203.854 715.301 203.505 715.476 203.155C715.651 202.806 715.651 202.282 715.825 201.234C716 200.36 716 199.662 716 199.312C716 199.138 715.825 198.963 715.825 198.788C715.651 198.963 715.651 199.138 715.476 199.312C715.301 199.487 714.777 199.487 713.904 199.836C713.729 199.836 713.38 200.011 712.856 200.011C712.157 200.186 711.808 200.186 711.808 200.186C711.459 200.186 709.886 200.71 707.266 201.583C706.742 201.758 706.568 201.933 706.393 202.107C706.044 202.282 705.694 202.806 705.345 203.679C704.996 204.378 704.821 205.251 704.821 205.95V207.347C704.821 207.173 704.996 206.998 705.17 206.823C705.52 206.649 706.044 206.299 706.917 206.125C707.092 206.125 709.537 205.601 713.904 204.553ZM715.651 196.518C715.301 196.343 715.127 196.168 714.952 195.994C714.777 195.994 714.603 195.644 714.079 195.47C713.555 195.295 713.38 194.946 713.205 194.946C712.507 194.596 711.808 194.072 710.935 193.548C710.585 193.374 710.061 192.85 709.537 192.326C708.664 191.627 707.965 190.579 707.441 189.356L706.742 193.548C706.568 194.422 706.568 195.295 706.742 195.819C706.917 195.994 707.092 196.518 707.616 197.042C707.965 197.391 708.489 197.915 709.362 198.439C709.537 198.439 709.712 198.614 710.41 198.963C711.109 198.788 711.633 198.614 711.808 198.614C711.983 198.614 712.332 198.614 712.856 198.439C713.555 198.264 713.904 198.09 713.904 198.09C714.777 197.915 715.301 197.74 715.476 197.74C715.651 197.566 715.651 197.391 715.651 197.216C715.825 196.867 715.651 196.692 715.651 196.518ZM713.38 210.841C713.205 210.666 712.856 210.491 712.681 210.317C712.507 210.317 712.332 209.967 711.808 209.793C711.284 209.443 711.109 209.269 710.935 209.269C710.236 208.919 709.537 208.395 708.664 207.871L708.489 207.697C707.441 207.871 706.742 208.046 706.742 208.046C705.869 208.395 705.694 208.395 705.17 208.745C704.821 209.094 704.646 209.618 704.646 209.618V209.967C704.646 209.967 704.646 210.142 704.821 210.491C704.996 210.666 704.996 210.841 705.17 211.015C705.52 211.365 706.044 211.889 706.917 212.413C707.092 212.413 707.266 212.762 707.79 212.937C708.489 212.588 711.459 212.064 711.459 212.064C712.332 211.889 712.856 211.714 713.031 211.539C713.205 211.365 713.205 211.365 713.205 211.015C713.555 211.19 713.555 211.015 713.38 210.841ZM703.773 226.736C704.297 227.609 704.821 228.133 705.694 228.483C706.917 229.007 708.14 229.356 709.188 229.181C709.362 229.181 709.712 229.181 709.886 229.007C710.236 229.007 710.41 228.832 710.76 228.657C711.284 228.483 711.459 228.133 711.284 227.609C711.109 227.085 710.76 226.911 710.41 227.085H710.236C710.061 227.085 709.886 227.26 709.712 227.26C708.664 227.609 707.441 227.435 706.393 226.911C705.345 226.387 704.646 225.164 704.472 223.417C704.472 222.893 704.122 222.719 703.598 222.719H703.249C702.9 222.893 702.725 223.068 702.725 223.592C702.725 223.941 702.9 224.291 702.9 224.64C703.074 225.339 703.249 226.037 703.773 226.736ZM702.55 220.448V221.845C702.55 221.67 702.725 221.496 702.9 221.321C703.249 221.146 703.773 220.797 704.646 220.622C704.821 220.622 706.044 220.273 708.489 219.749H709.013C709.362 219.749 709.537 219.574 709.886 219.574C710.76 219.4 711.284 219.225 711.284 219.225C711.983 219.05 712.507 218.876 713.031 218.526C713.205 218.352 713.38 218.002 713.555 217.653C713.729 217.304 713.729 216.78 713.904 215.732C714.079 214.858 714.079 214.16 714.079 213.81C714.079 213.636 713.904 213.461 713.904 213.286C713.729 213.636 713.555 213.81 713.38 213.81C713.205 213.985 712.681 213.985 711.808 214.334C711.808 214.334 711.459 214.509 710.76 214.684C710.061 214.858 709.712 214.858 709.537 214.858C709.362 214.858 707.965 215.382 705.52 216.081C704.821 216.43 704.472 216.605 704.297 216.78C703.948 217.129 703.598 217.478 703.249 218.352C702.725 218.701 702.55 219.4 702.55 220.448Z" fill="#FFB266"/>
<path d="M700.803 218.876C700.279 218.526 699.755 218.002 698.707 216.954L699.231 207.173L696.262 209.793L687.179 199.662L684.384 202.107V196.518L682.114 194.072L679.668 196.343C678.969 195.47 678.62 194.596 678.271 193.898C677.747 191.976 678.271 190.404 679.843 189.181C680.367 188.832 681.065 188.657 681.764 188.657C682.638 188.657 683.162 188.657 683.511 188.832C683.86 188.832 684.21 189.007 684.384 189.181H684.734C685.083 189.181 685.258 189.007 685.432 188.657C685.607 188.133 685.432 187.784 684.908 187.609C684.559 187.26 684.21 187.085 683.686 186.911C683.336 186.911 682.812 186.736 682.288 186.736H681.415C680.541 186.911 679.668 187.26 678.795 187.609C676.524 189.356 675.825 191.627 676.699 194.422C677.048 195.295 677.572 196.343 678.271 197.566L676.524 199.138L690.498 214.858L687.528 217.304L697.31 218.002C698.533 219.225 699.231 219.749 699.755 220.273C700.105 220.448 700.454 220.622 700.803 220.273C701.153 219.924 701.153 219.225 700.803 218.876Z" fill="#FFB266"/>
<path d="M697.659 206.474L699.93 204.203V208.919L701.502 210.666L702.725 209.618C702.376 207.347 702.201 204.553 702.9 203.155L692.943 191.976L695.214 190.055L686.655 189.531L686.131 198.09L688.402 196.168L697.659 206.474Z" fill="#FFB266"/>
<circle cx="575.5" cy="227.5" r="3.5" fill="#FFB266"/>
<circle cx="590.5" cy="232.5" r="3.5" fill="#FFB266"/>
<circle cx="576.5" cy="240.5" r="3.5" fill="#FFB266"/>
<rect x="506" y="243" width="7" height="7" fill="#6C9CCC"/>
<rect x="514" y="253" width="7" height="7" fill="#6C9CCC"/>
<rect x="500" y="256" width="7" height="7" fill="#6C9CCC"/>
<rect x="514" y="272" width="7" height="7" fill="#6C9CCC"/>
<rect x="496" y="273" width="7" height="7" fill="#6C9CCC"/>
<path d="M509.5 291H516.5V298H509.5V291Z" fill="#6C9CCC"/>
<circle cx="496.5" cy="211.5" r="3.5" fill="#FF6666"/>
<circle cx="510.5" cy="208.5" r="3.5" fill="#FF6666"/>
<circle cx="510.5" cy="194.5" r="3.5" fill="#FF6666"/>
<circle cx="506.5" cy="224.5" r="3.5" fill="#FF6666"/>
<circle cx="568.5" cy="155.5" r="3.5" fill="#FF6666"/>
<path d="M565 166H572V173H565V166Z" fill="#6C9CCC"/>
<circle cx="568.5" cy="183.5" r="3.5" fill="#FFB266"/>
<text fill="black" xml:space="preserve" style="white-space: pre" font-family="Inter" font-size="10" letter-spacing="0em"><tspan x="576.413" y="186.636">Group B</tspan></text>
<text fill="black" xml:space="preserve" style="white-space: pre" font-family="Inter" font-size="10" letter-spacing="0em"><tspan x="576.259" y="172.636">Group A2</tspan></text>
<text fill="black" xml:space="preserve" style="white-space: pre" font-family="Inter" font-size="10" letter-spacing="0em"><tspan x="576.133" y="158.636">Group A1</tspan></text>
<g clip-path="url(#clip0_54_26)">
<path d="M662.276 345.428C664.101 356.148 665.462 365.693 667.531 375.05C667.981 377.081 670.853 378.821 672.95 380.025C674.869 381.142 677.238 381.36 679.403 381.969C679.294 382.636 679.198 383.304 679.089 383.971H566.693C566.544 383.362 566.407 382.738 566.258 382.129C567.891 381.476 569.511 380.301 571.145 380.257C576.877 380.127 578.714 376.834 579.422 371.191C580.457 362.864 582.308 354.654 583.983 345.399C580.58 345.399 577.925 345.399 575.256 345.399C539.18 345.399 503.103 345.254 467.04 345.544C460.505 345.602 457.932 344.108 457.973 336.405C458.286 272.128 458.245 207.821 458 143.515C457.987 136.639 460.042 135 466.182 135.029C570.56 135.203 674.924 135.232 779.287 135C786.258 134.986 788.028 137.089 788 144.386C787.742 208.445 787.755 272.519 788 336.579C788.028 343.6 786.081 345.631 779.56 345.573C743.265 345.283 706.957 345.428 670.662 345.442C668.198 345.442 665.748 345.442 662.304 345.442L662.276 345.428ZM780.24 143.196H466.468C466.278 145.532 465.992 147.403 465.992 149.289C465.964 209.693 466.073 270.097 465.828 330.501C465.801 337.304 468.674 337.667 473.615 337.667C573.391 337.594 673.167 337.638 772.943 337.638C775.339 337.638 777.722 337.333 780.24 337.159V143.196Z" fill="black"/>
</g>
<text fill="black" xml:space="preserve" style="white-space: pre" font-family="Inter" font-size="24" letter-spacing="0em"><tspan x="279" y="35.2273">ProtSpace Workflow</tspan></text>
<path d="M176.333 300.667L153 300.667C151.232 300.667 149.536 301.369 148.286 302.619C147.036 303.869 146.333 305.565 146.333 307.333L146.333 360.667C146.333 362.435 147.036 364.13 148.286 365.381C149.536 366.631 151.232 367.333 153 367.333L193 367.333C194.768 367.333 196.464 366.631 197.714 365.381C198.964 364.13 199.667 362.435 199.667 360.667L199.667 324L176.333 300.667Z" fill="#CCFFCC"/>
<path d="M176.333 300.667L176.333 324L199.667 324" fill="#CCFFCC"/>
<path d="M176.333 300.667L153 300.667C151.232 300.667 149.536 301.369 148.286 302.619C147.036 303.869 146.333 305.565 146.333 307.333L146.333 360.667C146.333 362.435 147.036 364.13 148.286 365.381C149.536 366.631 151.232 367.333 153 367.333L193 367.333C194.768 367.333 196.464 366.631 197.714 365.381C198.964 364.13 199.667 362.435 199.667 360.667L199.667 324M176.333 300.667L199.667 324M176.333 300.667L176.333 324L199.667 324" stroke="#1E1E1E" stroke-width="4" stroke-linecap="round" stroke-linejoin="round"/>
<text fill="black" xml:space="preserve" style="white-space: pre" font-family="Inter" font-size="12" letter-spacing="0em"><tspan x="160" y="342.864">CSV</tspan></text>
<text fill="black" xml:space="preserve" style="white-space: pre" font-family="Inter" font-size="12" letter-spacing="0em"><tspan x="69" y="290.864">EXPERT ANNOTATIONS</tspan></text>
<path d="M234 214L219 205.34V222.66L234 214ZM194 215.5H220.5V212.5H194V215.5Z" fill="black"/>
<path d="M321 214L306 205.34V222.66L321 214ZM281 215.5H307.5V212.5H281V215.5Z" fill="black"/>
<path d="M453 214L438 205.34V222.66L453 214ZM413 215.5H439.5V212.5H413V215.5Z" fill="black"/>
<path d="M253 237L237.316 244.35L251.523 254.257L253 237ZM201.23 313.858L246.508 248.931L244.047 247.215L198.77 312.142L201.23 313.858Z" fill="black"/>
<g clip-path="url(#clip1_54_26)">
<path d="M255.252 227.973L251.916 227.005C251.566 226.906 251.37 226.54 251.468 226.19L258.933 200.476C259.031 200.126 259.398 199.929 259.748 200.027L263.084 200.995C263.434 201.094 263.63 201.46 263.532 201.81L256.067 227.524C255.963 227.874 255.602 228.077 255.252 227.973ZM249.018 221.837L251.397 219.299C251.648 219.031 251.632 218.605 251.353 218.359L246.398 214L251.353 209.641C251.632 209.395 251.654 208.969 251.397 208.701L249.018 206.163C248.772 205.901 248.356 205.884 248.088 206.136L240.208 213.519C239.929 213.776 239.929 214.219 240.208 214.476L248.088 221.864C248.356 222.116 248.772 222.105 249.018 221.837ZM266.912 221.87L274.792 214.481C275.071 214.224 275.071 213.781 274.792 213.524L266.912 206.131C266.649 205.884 266.234 205.895 265.982 206.158L263.603 208.695C263.352 208.963 263.368 209.39 263.647 209.636L268.602 214L263.647 218.359C263.368 218.605 263.346 219.031 263.603 219.299L265.982 221.837C266.228 222.105 266.644 222.116 266.912 221.87Z" fill="black"/>
</g>
<path d="M372 164L337 164C334.348 164 331.804 165.054 329.929 166.929C328.054 168.804 327 171.348 327 174L327 254C327 256.652 328.054 259.196 329.929 261.071C331.804 262.946 334.348 264 337 264L397 264C399.652 264 402.196 262.946 404.071 261.071C405.946 259.196 407 256.652 407 254L407 199L372 164Z" fill="#30D6D6" fill-opacity="0.5"/>
<path d="M372 164L372 199L407 199" fill="#30D6D6" fill-opacity="0.5"/>
<path d="M372 164L337 164C334.348 164 331.804 165.054 329.929 166.929C328.054 168.804 327 171.348 327 174L327 254C327 256.652 328.054 259.196 329.929 261.071C331.804 262.946 334.348 264 337 264L397 264C399.652 264 402.196 262.946 404.071 261.071C405.946 259.196 407 256.652 407 254L407 199M372 164L407 199M372 164L372 199L407 199" stroke="#1E1E1E" stroke-width="4" stroke-linecap="round" stroke-linejoin="round"/>
<text fill="black" xml:space="preserve" style="white-space: pre" font-family="Inter" font-size="20" letter-spacing="0em"><tspan x="340" y="225.273">JSON</tspan></text>
<text fill="black" xml:space="preserve" style="white-space: pre" font-family="Inter" font-size="16" letter-spacing="0em"><tspan x="296" y="156.318">PROTSPACE FILE</tspan></text>
<text fill="black" xml:space="preserve" style="white-space: pre" font-family="Inter" font-size="12" letter-spacing="0em"><tspan x="143.667" y="223.197">HDF5</tspan></text>
<path d="M164 181L140.667 181C138.899 181 137.203 181.702 135.953 182.953C134.702 184.203 134 185.899 134 187.667L134 241C134 242.768 134.702 244.464 135.953 245.714C137.203 246.964 138.899 247.667 140.667 247.667L180.667 247.667C182.435 247.667 184.13 246.964 185.381 245.714C186.631 244.464 187.333 242.768 187.333 241L187.333 204.333M164 181L187.333 204.333M164 181L164 204.333L187.333 204.333" stroke="#1E1E1E" stroke-width="4" stroke-linecap="round" stroke-linejoin="round"/>
<path d="M128 214L113 205.34V222.66L128 214ZM88 215.5H114.5V212.5H88V215.5Z" fill="black"/>
<g clip-path="url(#clip2_54_26)">
<path d="M62.2523 227.973L58.9164 227.005C58.5664 226.906 58.3695 226.54 58.468 226.19L65.9328 200.476C66.0312 200.126 66.3977 199.929 66.7477 200.027L70.0836 200.995C70.4336 201.094 70.6305 201.46 70.532 201.81L63.0672 227.524C62.9633 227.874 62.6023 228.077 62.2523 227.973ZM56.018 221.837L58.3969 219.299C58.6484 219.031 58.632 218.605 58.3531 218.359L53.3984 214L58.3531 209.641C58.632 209.395 58.6539 208.969 58.3969 208.701L56.018 206.163C55.7719 205.901 55.3562 205.884 55.0883 206.136L47.2078 213.519C46.9289 213.776 46.9289 214.219 47.2078 214.476L55.0883 221.864C55.3562 222.116 55.7719 222.105 56.018 221.837ZM73.9117 221.87L81.7922 214.481C82.0711 214.224 82.0711 213.781 81.7922 213.524L73.9117 206.131C73.6492 205.884 73.2336 205.895 72.982 206.158L70.6031 208.695C70.3516 208.963 70.368 209.39 70.6469 209.636L75.6016 214L70.6469 218.359C70.368 218.605 70.3461 219.031 70.6031 219.299L72.982 221.837C73.2281 222.105 73.6437 222.116 73.9117 221.87Z" fill="black"/>
</g>
<path d="M65 138V193" stroke="black" stroke-width="3"/>
<path d="M385.333 54.6667L362 54.6667C360.232 54.6667 358.536 55.3691 357.286 56.6193C356.036 57.8696 355.333 59.5652 355.333 61.3334L355.333 114.667C355.333 116.435 356.036 118.13 357.286 119.381C358.536 120.631 360.232 121.333 362 121.333L402 121.333C403.768 121.333 405.464 120.631 406.714 119.381C407.964 118.13 408.667 116.435 408.667 114.667L408.667 78L385.333 54.6667Z" fill="white"/>
<path d="M385.333 54.6667L385.333 78L408.667 78" fill="white"/>
<path d="M385.333 54.6667L362 54.6667C360.232 54.6667 358.536 55.3691 357.286 56.6193C356.036 57.8696 355.333 59.5652 355.333 61.3334L355.333 114.667C355.333 116.435 356.036 118.13 357.286 119.381C358.536 120.631 360.232 121.333 362 121.333L402 121.333C403.768 121.333 405.464 120.631 406.714 119.381C407.964 118.13 408.667 116.435 408.667 114.667L408.667 78M385.333 54.6667L408.667 78M385.333 54.6667L385.333 78L408.667 78" stroke="#1E1E1E" stroke-width="4" stroke-linecap="round" stroke-linejoin="round" stroke-dasharray="10 10"/>
<text fill="black" xml:space="preserve" style="white-space: pre" font-family="Inter" font-size="12" letter-spacing="0em"><tspan x="369" y="107.864">PDB</tspan></text>
<path d="M380.856 57.6604H376.099V59.6235H380.856V57.6604Z" fill="black"/>
<path d="M376.099 55H371.341V56.4706H376.099V55Z" fill="black"/>
<path d="M376.099 60.5983H371.341V62.5614H376.099V60.5983Z" fill="black"/>
<path d="M380.856 63.8123H376.099V65.7756H380.856V63.8123Z" fill="black"/>
<path d="M380.856 70.0154H376.099V71.9785H380.856V70.0154Z" fill="black"/>
<path d="M376.099 66.8625H371.341V68.8256H376.099V66.8625Z" fill="black"/>
<path d="M380.515 76.1528H375.758V78.1159H380.515V76.1528Z" fill="black"/>
<path d="M375.758 73H371V74.9631H375.758V73Z" fill="black"/>
<path d="M376.081 80C373.827 80 372.755 81.8263 372.755 84.0809L372 90.9178C372 93.1724 373.826 95 376.08 95C378.334 95 380.16 93.1724 380.16 90.9178L379.407 84.0809C379.408 81.8268 378.335 80 376.081 80ZM377.433 93.2072H374.732V87.4996H377.433V93.2072Z" fill="black"/>
<path d="M344 93L328.988 84.3606L329.012 101.681L344 93ZM100.002 94.8394L103.052 94.8351L103.048 91.8351L99.9979 91.8394L100.002 94.8394ZM109.152 94.8266L115.252 94.8181L115.248 91.8181L109.148 91.8266L109.152 94.8266ZM121.352 94.8097L127.452 94.8012L127.448 91.8012L121.348 91.8097L121.352 94.8097ZM133.552 94.7927L139.652 94.7842L139.648 91.7842L133.548 91.7927L133.552 94.7927ZM145.752 94.7757L151.852 94.7672L151.848 91.7672L145.748 91.7757L145.752 94.7757ZM157.952 94.7588L164.052 94.7503L164.048 91.7503L157.948 91.7588L157.952 94.7588ZM170.152 94.7418L176.252 94.7333L176.248 91.7333L170.148 91.7418L170.152 94.7418ZM182.352 94.7248L188.452 94.7163L188.448 91.7163L182.348 91.7248L182.352 94.7248ZM194.552 94.7078L200.652 94.6994L200.648 91.6994L194.548 91.7079L194.552 94.7078ZM206.752 94.6909L212.852 94.6824L212.848 91.6824L206.748 91.6909L206.752 94.6909ZM218.952 94.6739L225.052 94.6654L225.048 91.6654L218.948 91.6739L218.952 94.6739ZM231.152 94.6569L237.252 94.6485L237.248 91.6485L231.148 91.6569L231.152 94.6569ZM243.352 94.64L249.452 94.6315L249.448 91.6315L243.348 91.64L243.352 94.64ZM255.552 94.623L261.652 94.6145L261.648 91.6145L255.548 91.623L255.552 94.623ZM267.752 94.606L273.852 94.5976L273.848 91.5976L267.748 91.606L267.752 94.606ZM279.952 94.5891L286.052 94.5806L286.048 91.5806L279.948 91.5891L279.952 94.5891ZM292.152 94.5721L298.252 94.5636L298.248 91.5636L292.148 91.5721L292.152 94.5721ZM304.352 94.5551L310.452 94.5466L310.448 91.5466L304.348 91.5551L304.352 94.5551ZM316.552 94.5382L322.652 94.5297L322.648 91.5297L316.548 91.5382L316.552 94.5382ZM328.752 94.5212L334.852 94.5127L334.848 91.5127L328.748 91.5212L328.752 94.5212ZM344 93L328.988 84.3606L329.012 101.681L344 93ZM100.002 94.8394L103.052 94.8351L103.048 91.8351L99.9979 91.8394L100.002 94.8394ZM109.152 94.8266L115.252 94.8181L115.248 91.8181L109.148 91.8266L109.152 94.8266ZM121.352 94.8097L127.452 94.8012L127.448 91.8012L121.348 91.8097L121.352 94.8097ZM133.552 94.7927L139.652 94.7842L139.648 91.7842L133.548 91.7927L133.552 94.7927ZM145.752 94.7757L151.852 94.7672L151.848 91.7672L145.748 91.7757L145.752 94.7757ZM157.952 94.7588L164.052 94.7503L164.048 91.7503L157.948 91.7588L157.952 94.7588ZM170.152 94.7418L176.252 94.7333L176.248 91.7333L170.148 91.7418L170.152 94.7418ZM182.352 94.7248L188.452 94.7163L188.448 91.7163L182.348 91.7248L182.352 94.7248ZM194.552 94.7078L200.652 94.6994L200.648 91.6994L194.548 91.7079L194.552 94.7078ZM206.752 94.6909L212.852 94.6824L212.848 91.6824L206.748 91.6909L206.752 94.6909ZM218.952 94.6739L225.052 94.6654L225.048 91.6654L218.948 91.6739L218.952 94.6739ZM231.152 94.6569L237.252 94.6485L237.248 91.6485L231.148 91.6569L231.152 94.6569ZM243.352 94.64L249.452 94.6315L249.448 91.6315L243.348 91.64L243.352 94.64ZM255.552 94.623L261.652 94.6145L261.648 91.6145L255.548 91.623L255.552 94.623ZM267.752 94.606L273.852 94.5976L273.848 91.5976L267.748 91.606L267.752 94.606ZM279.952 94.5891L286.052 94.5806L286.048 91.5806L279.948 91.5891L279.952 94.5891ZM292.152 94.5721L298.252 94.5636L298.248 91.5636L292.148 91.5721L292.152 94.5721ZM304.352 94.5551L310.452 94.5466L310.448 91.5466L304.348 91.5551L304.352 94.5551ZM316.552 94.5382L322.652 94.5297L322.648 91.5297L316.548 91.5382L316.552 94.5382ZM328.752 94.5212L334.852 94.5127L334.848 91.5127L328.748 91.5212L328.752 94.5212Z" fill="black"/>
<rect x="204" y="75.3394" width="35" height="35" fill="white"/>
<text fill="black" xml:space="preserve" style="white-space: pre" font-family="Inter" font-size="12" letter-spacing="0em"><tspan x="210" y="88.203">AF2&#x2028;</tspan><tspan x="210" y="103.203">PDB </tspan></text>
<path d="M674.462 93.0156L674.461 91.5156L674.462 93.0156ZM699.494 118.019L700.994 118.019L700.994 118.019L699.494 118.019ZM699.492 132.725L708.154 117.726L690.834 117.724L699.492 132.725ZM416.962 94.8384L420.027 94.8345L420.024 91.8345L416.958 91.8384L416.962 94.8384ZM426.158 94.8268L432.289 94.8192L432.286 91.8192L426.155 91.8269L426.158 94.8268ZM438.42 94.8115L444.551 94.8038L444.548 91.8038L438.417 91.8115L438.42 94.8115ZM450.683 94.7961L456.814 94.7884L456.81 91.7884L450.679 91.7961L450.683 94.7961ZM462.945 94.7807L469.076 94.773L469.072 91.773L462.941 91.7807L462.945 94.7807ZM475.207 94.7654L481.338 94.7577L481.334 91.7577L475.203 91.7654L475.207 94.7654ZM487.469 94.75L493.6 94.7423L493.596 91.7423L487.465 91.75L487.469 94.75ZM499.731 94.7346L505.862 94.7269L505.858 91.7269L499.727 91.7346L499.731 94.7346ZM511.993 94.7192L518.124 94.7116L518.12 91.7116L511.989 91.7192L511.993 94.7192ZM524.255 94.7039L530.386 94.6962L530.382 91.6962L524.251 91.7039L524.255 94.7039ZM536.517 94.6885L542.648 94.6808L542.644 91.6808L536.513 91.6885L536.517 94.6885ZM548.779 94.6731L554.91 94.6654L554.906 91.6654L548.775 91.6731L548.779 94.6731ZM561.041 94.6577L567.172 94.6501L567.168 91.6501L561.037 91.6578L561.041 94.6577ZM573.303 94.6424L579.434 94.6347L579.43 91.6347L573.299 91.6424L573.303 94.6424ZM585.565 94.627L591.696 94.6193L591.692 91.6193L585.561 91.627L585.565 94.627ZM597.827 94.6116L603.958 94.6039L603.954 91.6039L597.823 91.6116L597.827 94.6116ZM610.089 94.5963L616.22 94.5886L616.216 91.5886L610.085 91.5963L610.089 94.5963ZM622.351 94.5809L628.482 94.5732L628.478 91.5732L622.347 91.5809L622.351 94.5809ZM634.613 94.5655L640.744 94.5578L640.74 91.5578L634.609 91.5655L634.613 94.5655ZM646.875 94.5501L653.006 94.5425L653.002 91.5425L646.871 91.5501L646.875 94.5501ZM659.137 94.5348L665.268 94.5271L665.264 91.5271L659.133 91.5348L659.137 94.5348ZM671.399 94.5194L674.464 94.5156L674.461 91.5156L671.395 91.5194L671.399 94.5194ZM674.464 94.5156C675.507 94.5142 676.533 94.5808 677.538 94.7107L677.923 91.7355C676.789 91.5889 675.633 91.5141 674.461 91.5156L674.464 94.5156ZM683.469 96.29C685.381 97.0809 687.167 98.1172 688.787 99.3603L690.613 96.9803C688.788 95.5794 686.774 94.4103 684.616 93.5177L683.469 96.29ZM693.133 103.702C694.378 105.32 695.416 107.105 696.209 109.016L698.98 107.866C698.085 105.709 696.914 103.697 695.511 101.873L693.133 103.702ZM697.795 114.945C697.926 115.95 697.994 116.976 697.994 118.019L700.994 118.019C700.994 116.846 700.918 115.691 700.77 114.557L697.795 114.945ZM697.994 118.019L697.993 121.695L700.993 121.696L700.994 118.019L697.994 118.019ZM674.462 93.0156L674.461 91.5156L674.462 93.0156ZM699.494 118.019L700.994 118.019L700.994 118.019L699.494 118.019ZM699.492 132.725L708.154 117.726L690.834 117.724L699.492 132.725ZM416.962 94.8384L420.027 94.8345L420.024 91.8345L416.958 91.8384L416.962 94.8384ZM426.158 94.8268L432.289 94.8192L432.286 91.8192L426.155 91.8269L426.158 94.8268ZM438.42 94.8115L444.551 94.8038L444.548 91.8038L438.417 91.8115L438.42 94.8115ZM450.683 94.7961L456.814 94.7884L456.81 91.7884L450.679 91.7961L450.683 94.7961ZM462.945 94.7807L469.076 94.773L469.072 91.773L462.941 91.7807L462.945 94.7807ZM475.207 94.7654L481.338 94.7577L481.334 91.7577L475.203 91.7654L475.207 94.7654ZM487.469 94.75L493.6 94.7423L493.596 91.7423L487.465 91.75L487.469 94.75ZM499.731 94.7346L505.862 94.7269L505.858 91.7269L499.727 91.7346L499.731 94.7346ZM511.993 94.7192L518.124 94.7116L518.12 91.7116L511.989 91.7192L511.993 94.7192ZM524.255 94.7039L530.386 94.6962L530.382 91.6962L524.251 91.7039L524.255 94.7039ZM536.517 94.6885L542.648 94.6808L542.644 91.6808L536.513 91.6885L536.517 94.6885ZM548.779 94.6731L554.91 94.6654L554.906 91.6654L548.775 91.6731L548.779 94.6731ZM561.041 94.6577L567.172 94.6501L567.168 91.6501L561.037 91.6578L561.041 94.6577ZM573.303 94.6424L579.434 94.6347L579.43 91.6347L573.299 91.6424L573.303 94.6424ZM585.565 94.627L591.696 94.6193L591.692 91.6193L585.561 91.627L585.565 94.627ZM597.827 94.6116L603.958 94.6039L603.954 91.6039L597.823 91.6116L597.827 94.6116ZM610.089 94.5963L616.22 94.5886L616.216 91.5886L610.085 91.5963L610.089 94.5963ZM622.351 94.5809L628.482 94.5732L628.478 91.5732L622.347 91.5809L622.351 94.5809ZM634.613 94.5655L640.744 94.5578L640.74 91.5578L634.609 91.5655L634.613 94.5655ZM646.875 94.5501L653.006 94.5425L653.002 91.5425L646.871 91.5501L646.875 94.5501ZM659.137 94.5348L665.268 94.5271L665.264 91.5271L659.133 91.5348L659.137 94.5348ZM671.399 94.5194L674.464 94.5156L674.461 91.5156L671.395 91.5194L671.399 94.5194ZM674.464 94.5156C675.507 94.5142 676.533 94.5808 677.538 94.7107L677.923 91.7355C676.789 91.5889 675.633 91.5141 674.461 91.5156L674.464 94.5156ZM683.469 96.29C685.381 97.0809 687.167 98.1172 688.787 99.3603L690.613 96.9803C688.788 95.5794 686.774 94.4103 684.616 93.5177L683.469 96.29ZM693.133 103.702C694.378 105.32 695.416 107.105 696.209 109.016L698.98 107.866C698.085 105.709 696.914 103.697 695.511 101.873L693.133 103.702ZM697.795 114.945C697.926 115.95 697.994 116.976 697.994 118.019L700.994 118.019C700.994 116.846 700.918 115.691 700.77 114.557L697.795 114.945ZM697.994 118.019L697.993 121.695L700.993 121.696L700.994 118.019L697.994 118.019Z" fill="black"/>
<text fill="black" xml:space="preserve" style="white-space: pre" font-family="Inter" font-size="12" letter-spacing="0em"><tspan x="121" y="172.864">EMBEDDINGS</tspan></text>
<path d="M68 64.6667L44.6667 64.6667C42.8986 64.6667 41.2029 65.3691 39.9526 66.6193C38.7024 67.8696 38 69.5652 38 71.3334L38 124.667C38 126.435 38.7024 128.13 39.9526 129.381C41.2029 130.631 42.8986 131.333 44.6667 131.333L84.6667 131.333C86.4348 131.333 88.1305 130.631 89.3807 129.381C90.6309 128.13 91.3333 126.435 91.3333 124.667L91.3333 88L68 64.6667Z" fill="#CCFFCC"/>
<path d="M68 64.6667L68 88L91.3333 88" fill="#CCFFCC"/>
<path d="M68 64.6667L44.6667 64.6667C42.8986 64.6667 41.2029 65.3691 39.9526 66.6193C38.7024 67.8696 38 69.5652 38 71.3334L38 124.667C38 126.435 38.7024 128.13 39.9526 129.381C41.2029 130.631 42.8986 131.333 44.6667 131.333L84.6667 131.333C86.4348 131.333 88.1305 130.631 89.3807 129.381C90.6309 128.13 91.3333 126.435 91.3333 124.667L91.3333 88M68 64.6667L91.3333 88M68 64.6667L68 88L91.3333 88" stroke="#1E1E1E" stroke-width="4" stroke-linecap="round" stroke-linejoin="round"/>
<text fill="black" xml:space="preserve" style="white-space: pre" font-family="Inter" font-size="12" letter-spacing="0em"><tspan x="47" y="106.864">FASTA</tspan></text>
<text fill="black" xml:space="preserve" style="white-space: pre" font-family="Inter" font-size="12" letter-spacing="0em"><tspan x="29" y="54.8636">SEQUENCES</tspan></text>
<path d="M308.068 324.362C308.268 324.877 308.847 325.132 309.362 324.932L317.752 321.675C318.267 321.475 318.522 320.896 318.322 320.381C318.122 319.866 317.543 319.611 317.028 319.811L309.57 322.706L306.675 315.248C306.475 314.733 305.896 314.478 305.381 314.678C304.866 314.878 304.611 315.457 304.811 315.972L308.068 324.362ZM334.085 264.597L308.085 323.597L309.915 324.403L335.915 265.403L334.085 264.597Z" fill="black"/>
<path d="M417.509 333.871C417.99 334.142 418.6 333.972 418.871 333.491L423.288 325.649C423.559 325.168 423.389 324.558 422.907 324.287C422.426 324.016 421.816 324.186 421.545 324.667L417.619 331.638L410.649 327.712C410.168 327.441 409.558 327.611 409.287 328.093C409.016 328.574 409.186 329.184 409.667 329.455L417.509 333.871ZM398.037 265.269L417.037 333.269L418.963 332.731L399.963 264.731L398.037 265.269Z" fill="black"/>
<path d="M366.293 332.707C366.683 333.098 367.317 333.098 367.707 332.707L374.071 326.343C374.462 325.953 374.462 325.319 374.071 324.929C373.681 324.538 373.047 324.538 372.657 324.929L367 330.586L361.343 324.929C360.953 324.538 360.319 324.538 359.929 324.929C359.538 325.319 359.538 325.953 359.929 326.343L366.293 332.707ZM366 265L366 332L368 332L368 265L366 265Z" fill="black"/>
<path d="M339.143 309.514C339.427 309.988 340.041 310.142 340.514 309.857L348.232 305.227C348.706 304.943 348.859 304.329 348.575 303.855C348.291 303.381 347.677 303.228 347.203 303.512L340.343 307.628L336.227 300.768C335.943 300.294 335.329 300.141 334.855 300.425C334.381 300.709 334.228 301.323 334.512 301.797L339.143 309.514ZM350.03 264.757L339.03 308.757L340.97 309.243L351.97 265.243L350.03 264.757Z" fill="black"/>
<path d="M390.438 307.827C390.894 308.137 391.516 308.019 391.827 307.562L396.888 300.12C397.198 299.663 397.08 299.041 396.623 298.731C396.166 298.42 395.544 298.539 395.234 298.995L390.735 305.611L384.12 301.112C383.663 300.802 383.041 300.92 382.731 301.377C382.42 301.834 382.539 302.456 382.995 302.766L390.438 307.827ZM382.018 265.187L390.018 307.187L391.982 306.813L383.982 264.813L382.018 265.187Z" fill="black"/>
<path d="M96.4675 305.129C100.128 305.553 103.752 306.89 106.85 308.977C112.447 312.738 116.083 318.797 116.82 325.631C117.083 327.943 116.958 329.767 116.396 332.241C116.221 332.965 116.058 333.953 116.021 334.427C115.946 335.227 115.971 335.339 116.358 336.102C116.595 336.551 117.295 337.701 117.92 338.663C119.169 340.599 119.894 341.974 120.556 343.66C121.393 345.822 121.068 346.984 119.394 347.746C118.882 347.971 118.495 348.033 117.245 348.071L115.708 348.121L115.596 348.583C115.346 349.533 115.071 351.857 114.971 353.918C114.884 355.88 114.846 356.117 114.534 356.754C113.609 358.653 111.573 359.44 107.862 359.303L105.963 359.241V361.789C105.963 364.338 105.963 364.351 105.651 364.651L105.351 364.963H90.9701H76.5893L76.2895 364.651C76.0771 364.451 75.9771 364.213 75.9771 363.938C75.9896 363.001 76.3769 360.715 76.9017 358.503C77.9637 354.043 78.3135 351.607 78.1761 349.595C78.0012 347.096 77.5014 345.647 75.9896 343.298C73.041 338.713 71.5542 334.49 71.0794 329.38C70.5547 323.732 72.6537 317.548 76.6643 312.862C77.9762 311.313 80.0002 309.602 81.9118 308.402C82.9613 307.74 85.5851 306.528 86.847 306.116C89.8331 305.154 93.4314 304.779 96.4675 305.129ZM90.4078 307.303C84.3732 308.352 79.0257 312.05 75.8897 317.323C73.6157 321.159 72.6287 325.719 73.1535 330.017C73.6782 334.277 75.165 338.375 77.4889 341.911C79.1881 344.51 79.8503 346.272 80.1252 348.945C80.3626 351.332 80.0502 353.956 78.9757 358.403C78.4635 360.54 78.1011 362.339 78.1011 362.726C78.1011 362.964 78.4385 362.964 91.0325 362.964H103.964V360.278C103.964 357.579 103.964 357.579 104.276 357.279C104.626 356.917 104.576 356.917 106.163 357.154C109.424 357.641 112.023 357.192 112.672 356.005C112.885 355.592 112.935 355.23 112.997 353.468C113.11 350.482 113.759 346.746 114.259 346.247C114.434 346.072 114.784 346.034 116.52 346.034C118.407 346.034 118.595 346.009 118.819 345.784C119.069 345.535 119.069 345.535 118.757 344.61C118.307 343.261 117.32 341.362 116.196 339.662C115.646 338.838 114.934 337.638 114.609 336.989C114.034 335.827 114.022 335.789 114.034 334.677C114.047 333.89 114.184 332.99 114.459 331.729C114.846 330.067 114.871 329.742 114.884 327.793C114.884 325.444 114.684 324.032 114.072 321.983C111.698 313.974 104.751 308.152 96.3425 307.115C95.0431 306.965 91.7697 307.065 90.4078 307.303Z" fill="black"/>
<path d="M94.9682 311.488V313.987H93.9686H92.9691V311.488V308.989H93.9686H94.9682V311.488Z" fill="black"/>
<path d="M106 312.962C106.325 313.287 106.588 313.612 106.588 313.675C106.588 313.75 105.713 314.674 104.651 315.736L102.715 317.673L102.002 316.948L101.278 316.236L103.214 314.299C104.276 313.237 105.201 312.363 105.276 312.363C105.351 312.363 105.676 312.638 106 312.962Z" fill="black"/>
<path d="M84.698 314.274C85.735 315.324 86.5971 316.236 86.5971 316.298C86.5971 316.461 85.4477 317.61 85.2852 317.61C85.2103 317.61 84.2857 316.736 83.2237 315.674L81.2871 313.737L81.9743 313.05C82.3491 312.675 82.6865 312.363 82.724 312.363C82.7614 312.363 83.6485 313.225 84.698 314.274Z" fill="black"/>
<path d="M96.1176 316.173C97.367 316.386 98.5415 316.773 99.7784 317.385C102.227 318.61 104.289 320.646 105.513 323.07C108.074 328.105 107.125 334.078 103.164 337.813C102.677 338.288 101.977 338.863 101.628 339.1L100.978 339.537L100.965 342.374V345.197L99.8534 347.446C99.2037 348.733 98.6164 349.758 98.479 349.833C98.1417 350.02 89.7956 350.02 89.4583 349.845C89.3208 349.77 88.7211 348.708 88.0964 347.471L86.9719 345.222V342.386V339.537L86.3722 339.163C85.5726 338.663 83.7485 336.839 83.1363 335.914C80.5375 332.028 80.2751 327.343 82.4366 323.045C83.0988 321.746 83.8484 320.759 85.0603 319.597C86.2098 318.51 86.8595 318.035 88.0964 317.41C90.5952 316.161 93.4189 315.724 96.1176 316.173ZM92.0321 318.173C86.6221 319.122 82.699 324.07 83.0113 329.542C83.2237 333.028 85.1353 336.164 88.1339 337.901C88.8586 338.326 88.971 338.525 88.971 339.338V339.975H89.9705H90.9701V336.976V333.978H89.9705H88.971V332.978V331.978H93.9686H98.9663V332.978V333.978H97.9668H96.9672V336.976V339.975H97.9668H98.9663V339.338C98.9663 338.525 99.0787 338.326 99.8034 337.913C101.478 336.951 102.864 335.477 103.777 333.728C104.489 332.341 104.826 331.091 104.926 329.542C105.326 322.52 99.0163 316.961 92.0321 318.173ZM92.9691 336.976V339.975H93.9686H94.9682V336.976V333.978H93.9686H92.9691V336.976ZM88.971 342.973V343.973H93.9686H98.9663V342.973V341.974H93.9686H88.971V342.973ZM90.0955 346.971L90.5952 347.971H93.9686H97.3421L97.8418 346.971L98.3416 345.972H93.9686H89.5957L90.0955 346.971Z" fill="black"/>
<path d="M93.9686 320.984C93.9686 321.908 93.9437 321.983 93.7188 321.983C93.0316 321.983 91.4323 322.42 90.5203 322.858C89.3208 323.432 88.1964 324.544 87.6591 325.669C87.2968 326.444 86.9719 327.768 86.9719 328.505V328.98H85.9599H84.9354L85.0104 328.03C85.2103 325.769 85.9224 324.157 87.4092 322.658C88.2463 321.808 88.6087 321.546 89.6207 321.059C90.7951 320.484 92.6193 319.984 93.5563 319.984H93.9686V320.984Z" fill="black"/>
<path d="M86.9719 331.978V332.978H85.9724H84.9729V331.978V330.979H85.9724H86.9719V331.978Z" fill="black"/>
<path d="M110.961 319.984C111.186 320.459 111.36 320.871 111.323 320.909C111.26 320.971 107.487 322.858 107.425 322.858C107.35 322.858 106.538 321.109 106.6 321.059C106.663 320.996 110.436 319.11 110.498 319.11C110.523 319.11 110.723 319.497 110.961 319.984Z" fill="black"/>
<path d="M79.413 320.072C80.4375 320.584 81.3121 321.034 81.3371 321.059C81.3996 321.109 80.5875 322.858 80.5125 322.858C80.45 322.858 76.6768 320.971 76.6143 320.909C76.5394 320.846 77.3765 319.11 77.4639 319.122C77.5014 319.122 78.376 319.547 79.413 320.072Z" fill="black"/>
<path d="M112.96 327.98V328.98H110.961H108.962V327.98V326.981H110.961H112.96V327.98Z" fill="black"/>
<path d="M78.9757 327.98V328.98H76.9767H74.9776V327.98V326.981H76.9767H78.9757V327.98Z" fill="black"/>
<path d="M110.398 333.065C111.423 333.578 112.297 334.028 112.322 334.053C112.385 334.103 111.573 335.852 111.498 335.852C111.435 335.852 107.662 333.965 107.6 333.903C107.525 333.84 108.362 332.103 108.449 332.116C108.487 332.116 109.361 332.541 110.398 333.065Z" fill="black"/>
<path d="M79.9752 332.978C80.2001 333.453 80.3751 333.865 80.3376 333.903C80.2251 334.003 76.4519 335.864 76.4144 335.827C76.4019 335.802 76.202 335.427 75.9771 334.99C75.5898 334.215 75.5898 334.177 75.8022 334.003C76.0146 333.853 79.413 332.103 79.513 332.103C79.538 332.103 79.7379 332.491 79.9752 332.978Z" fill="black"/>
<path d="M409.642 341.769C407.597 344.158 406.522 347.316 406.791 350.213C407.032 352.81 407.79 354.96 409.285 357.284L409.285 357.284C409.657 357.863 409.897 358.319 410.056 358.777C410.214 359.234 410.296 359.704 410.339 360.315C410.405 361.279 410.238 362.465 409.708 364.694L409.708 364.694C409.445 365.8 409.245 366.967 409.239 367.466L409.239 367.466V367.469C409.239 367.674 409.316 367.857 409.468 368.003L409.614 368.155L409.688 368.231H409.795H416.985H424.175H424.282L424.356 368.155L424.502 368.002C424.503 368.002 424.503 368.001 424.504 368.001C424.54 367.966 424.595 367.913 424.637 367.834C424.68 367.752 424.699 367.661 424.711 367.559C424.732 367.365 424.731 367.035 424.731 366.431V366.395V365.379L425.422 365.401C425.422 365.401 425.422 365.401 425.422 365.401C427.298 365.471 428.46 365.079 428.991 363.987C429.077 363.814 429.131 363.679 429.166 363.455C429.198 363.246 429.214 362.956 429.235 362.471C429.285 361.443 429.422 360.303 429.54 359.855L429.54 359.855L429.541 359.851L429.552 359.804L430.13 359.785C430.13 359.785 430.13 359.785 430.13 359.785C430.759 359.766 430.994 359.735 431.298 359.602L431.298 359.602L431.301 359.601C431.756 359.393 432.079 359.107 432.199 358.682C432.315 358.274 432.226 357.795 432.011 357.24L432.011 357.239C431.672 356.377 431.301 355.675 430.67 354.696L430.67 354.695C430.359 354.216 430.015 353.651 429.901 353.436C429.802 353.241 429.768 353.162 429.753 353.09C429.739 353.019 429.74 352.941 429.759 352.737L429.759 352.737L429.76 352.733C429.777 352.512 429.856 352.032 429.941 351.679L429.941 351.679L429.942 351.676C430.228 350.415 430.293 349.475 430.159 348.288C429.782 344.799 427.925 341.703 425.065 339.781C423.482 338.716 421.633 338.033 419.763 337.816L419.762 337.816C418.207 337.637 416.372 337.828 414.847 338.32L414.846 338.32C414.197 338.532 412.867 339.146 412.323 339.489M409.642 341.769C409.642 341.769 409.642 341.769 409.642 341.769L409.832 341.931L409.641 341.77C409.642 341.769 409.642 341.769 409.642 341.769ZM409.642 341.769C410.317 340.972 411.349 340.101 412.323 339.489M412.323 339.489C412.323 339.489 412.323 339.49 412.323 339.49L412.456 339.701L412.323 339.489ZM411.231 364.76C411.77 362.529 411.934 361.184 411.811 359.948L411.811 359.947C411.669 358.565 411.322 357.646 410.454 356.319L410.453 356.318C409.313 354.583 408.583 352.571 408.325 350.478C408.069 348.386 408.55 346.161 409.66 344.289C411.191 341.715 413.802 339.91 416.747 339.398L416.747 339.398C417.069 339.341 417.634 339.3 418.207 339.282C418.78 339.264 419.336 339.271 419.642 339.306C423.749 339.813 427.138 342.656 428.296 346.563L428.296 346.563C428.595 347.562 428.692 348.244 428.692 349.396C428.689 349.885 428.684 350.156 428.657 350.408C428.631 350.658 428.583 350.893 428.486 351.308L428.486 351.308L428.485 351.311C428.347 351.947 428.274 352.416 428.267 352.835L428.267 352.836C428.264 353.105 428.262 353.284 428.308 353.468C428.352 353.644 428.439 353.819 428.574 354.092L428.58 354.105L428.581 354.106C428.749 354.443 429.111 355.052 429.39 355.469C429.945 356.308 430.426 357.237 430.641 357.884L430.642 357.885C430.681 358.002 430.709 358.084 430.727 358.146C430.735 358.17 430.74 358.19 430.743 358.205C430.74 358.208 430.737 358.212 430.733 358.215C430.719 358.229 430.717 358.23 430.716 358.23C430.716 358.23 430.716 358.23 430.716 358.23C430.71 358.232 430.686 358.241 430.619 358.248C430.481 358.264 430.238 358.267 429.76 358.267C429.329 358.267 429.056 358.272 428.878 358.289C428.706 358.305 428.562 358.337 428.453 358.447C428.385 358.514 428.338 358.609 428.303 358.692C428.264 358.782 428.228 358.892 428.193 359.015C428.123 359.26 428.056 359.572 427.995 359.92C427.874 360.615 427.777 361.466 427.749 362.225L427.749 362.225C427.717 363.119 427.689 363.24 427.615 363.385C427.509 363.575 427.206 363.761 426.655 363.857C426.12 363.951 425.416 363.949 424.618 363.83L424.575 363.823C424.4 363.797 424.262 363.776 424.155 363.763C424.042 363.749 423.944 363.741 423.861 363.746C423.767 363.753 423.684 363.777 423.607 363.83C423.553 363.867 423.505 363.917 423.471 363.953C423.468 363.956 423.465 363.959 423.462 363.962C423.461 363.963 423.46 363.964 423.459 363.965C423.423 363.999 423.367 364.052 423.326 364.132C423.283 364.215 423.264 364.308 423.253 364.413C423.232 364.614 423.232 364.961 423.232 365.603V365.639V366.732H417.016C413.866 366.732 412.253 366.732 411.427 366.717C411.126 366.712 410.938 366.704 410.82 366.696M411.231 364.76L410.988 364.702L411.231 364.76C411.231 364.76 411.231 364.76 411.231 364.76ZM411.231 364.76C411.103 365.292 410.995 365.781 410.918 366.16C410.88 366.35 410.85 366.51 410.83 366.634C410.826 366.656 410.823 366.677 410.82 366.696M410.82 366.696C410.774 366.692 410.738 366.688 410.711 366.684C410.686 366.681 410.676 366.678 410.676 366.678C410.676 366.678 410.691 366.682 410.71 366.695C410.735 366.712 410.765 366.742 410.784 366.786C410.801 366.825 410.801 366.858 410.801 366.863C410.801 366.842 410.806 366.788 410.82 366.696Z" fill="black" stroke="black" stroke-width="0.5"/>
<path d="M420.014 343.727L420.014 343.727C418.739 343.514 417.406 343.721 416.227 344.31L416.226 344.311C415.641 344.606 415.331 344.833 414.792 345.343L414.791 345.343C414.222 345.889 413.866 346.357 413.553 346.972L413.552 346.973C412.533 349 412.656 351.216 413.884 353.052C414.032 353.276 414.321 353.601 414.615 353.896C414.908 354.19 415.22 354.468 415.418 354.591L415.637 354.728V355.977V357.289V357.318L415.65 357.345L416.171 358.385L416.171 358.386C416.316 358.673 416.459 358.941 416.573 359.142C416.631 359.242 416.682 359.327 416.723 359.39C416.744 359.422 416.764 359.45 416.781 359.472C416.79 359.483 416.799 359.494 416.809 359.504C416.818 359.512 416.833 359.526 416.853 359.537L416.853 359.537L416.855 359.538C416.877 359.55 416.901 359.555 416.913 359.557C416.93 359.561 416.948 359.563 416.968 359.566C417.009 359.571 417.061 359.575 417.122 359.579C417.245 359.586 417.411 359.593 417.605 359.598C417.993 359.608 418.496 359.613 418.999 359.612C419.502 359.612 420.005 359.606 420.393 359.595C420.587 359.59 420.753 359.583 420.876 359.575C420.938 359.571 420.99 359.566 421.031 359.561C421.051 359.558 421.07 359.555 421.087 359.552C421.099 359.549 421.124 359.543 421.146 359.531L421.086 359.422L421.146 359.531C421.165 359.521 421.18 359.507 421.188 359.499C421.198 359.489 421.207 359.478 421.216 359.467C421.234 359.446 421.253 359.418 421.274 359.388C421.315 359.326 421.366 359.242 421.423 359.142C421.538 358.942 421.682 358.673 421.833 358.374L421.833 358.374L421.834 358.373L422.348 357.333L422.361 357.306V357.277V355.971V355.971L422.366 354.726L422.612 354.56L422.613 354.56C422.782 354.445 423.11 354.175 423.34 353.951C425.214 352.183 425.66 349.36 424.451 346.984C423.873 345.838 422.899 344.877 421.743 344.299L421.742 344.299C421.16 344.01 420.605 343.827 420.014 343.727ZM416.363 353.794L416.362 353.793C415.012 353.011 414.151 351.599 414.055 350.027C413.914 347.559 415.684 345.326 418.125 344.898C421.278 344.351 424.124 346.861 423.944 350.027C423.898 350.727 423.747 351.288 423.426 351.914C423.014 352.702 422.389 353.366 421.636 353.799C421.469 353.894 421.345 353.979 421.271 354.104C421.197 354.23 421.186 354.379 421.186 354.566V354.736H420.849H420.511V353.474V352.212H420.849H421.311H421.436V352.087V351.624V351.162V351.037H421.311H418.999H416.687H416.562V351.162V351.624V352.087V352.212H416.687H417.149H417.487V353.474V354.736H417.149H416.812V354.566C416.812 354.379 416.801 354.231 416.727 354.104C416.654 353.978 416.53 353.892 416.363 353.794ZM418.999 354.736H418.662V353.474V352.212H418.999H419.337V353.474V354.736H418.999ZM421.186 356.586H418.999H416.812V356.248V355.911H418.999H421.186V356.248V356.586ZM418.999 358.435H417.516L417.319 358.042L417.178 357.761H418.999H420.82L420.679 358.042L420.482 358.435H418.999Z" fill="black" stroke="black" stroke-width="0.25"/>
<path d="M382.642 315.769C380.597 318.158 379.522 321.316 379.791 324.213C380.032 326.81 380.79 328.96 382.285 331.284L382.285 331.284C382.657 331.863 382.897 332.319 383.056 332.777C383.214 333.234 383.296 333.704 383.339 334.315C383.405 335.279 383.238 336.465 382.708 338.694L382.708 338.694C382.445 339.8 382.245 340.967 382.239 341.466L382.239 341.466V341.469C382.239 341.674 382.316 341.857 382.468 342.003L382.614 342.155L382.688 342.231H382.795H389.985H397.175H397.282L397.356 342.155L397.502 342.002C397.503 342.002 397.503 342.001 397.504 342.001C397.54 341.966 397.595 341.913 397.637 341.834C397.68 341.752 397.699 341.661 397.711 341.559C397.732 341.365 397.731 341.035 397.731 340.431V340.395V339.379L398.422 339.401C398.422 339.401 398.422 339.401 398.422 339.401C400.298 339.471 401.46 339.079 401.991 337.987C402.077 337.814 402.131 337.679 402.166 337.455C402.198 337.246 402.214 336.956 402.235 336.471C402.285 335.443 402.422 334.303 402.54 333.855L402.54 333.855L402.541 333.851L402.552 333.804L403.13 333.785C403.13 333.785 403.13 333.785 403.13 333.785C403.759 333.766 403.994 333.735 404.298 333.602L404.298 333.602L404.301 333.601C404.756 333.393 405.079 333.107 405.199 332.682C405.315 332.274 405.226 331.795 405.011 331.24L405.011 331.239C404.672 330.377 404.301 329.675 403.67 328.696L403.67 328.695C403.359 328.216 403.015 327.651 402.901 327.436C402.802 327.241 402.768 327.162 402.753 327.09C402.739 327.019 402.74 326.941 402.759 326.737L402.759 326.737L402.76 326.733C402.777 326.512 402.856 326.032 402.941 325.679L402.941 325.679L402.942 325.676C403.228 324.415 403.293 323.475 403.159 322.288C402.782 318.799 400.925 315.703 398.065 313.781C396.482 312.716 394.633 312.033 392.763 311.816L392.762 311.816C391.207 311.637 389.372 311.828 387.847 312.32L387.846 312.32C387.197 312.532 385.867 313.146 385.323 313.489M382.642 315.769C382.642 315.769 382.642 315.769 382.642 315.769L382.832 315.931L382.641 315.77C382.642 315.769 382.642 315.769 382.642 315.769ZM382.642 315.769C383.317 314.972 384.349 314.101 385.323 313.489M385.323 313.489C385.323 313.489 385.323 313.49 385.323 313.49L385.456 313.701L385.323 313.489ZM384.231 338.76C384.77 336.529 384.934 335.184 384.811 333.948L384.811 333.947C384.669 332.565 384.322 331.646 383.454 330.319L383.453 330.318C382.313 328.583 381.583 326.571 381.325 324.478C381.069 322.386 381.55 320.161 382.66 318.289C384.191 315.715 386.802 313.91 389.747 313.398L389.747 313.398C390.069 313.341 390.634 313.3 391.207 313.282C391.78 313.264 392.336 313.271 392.642 313.306C396.749 313.813 400.138 316.656 401.296 320.563L401.296 320.563C401.595 321.562 401.692 322.244 401.692 323.396C401.689 323.885 401.684 324.156 401.657 324.408C401.631 324.658 401.583 324.893 401.486 325.308L401.486 325.308L401.485 325.311C401.347 325.947 401.274 326.416 401.267 326.835L401.267 326.836C401.264 327.105 401.262 327.284 401.308 327.468C401.352 327.644 401.439 327.819 401.574 328.092L401.58 328.105L401.581 328.106C401.749 328.443 402.111 329.052 402.39 329.469C402.945 330.308 403.426 331.237 403.641 331.884L403.642 331.885C403.681 332.002 403.709 332.084 403.727 332.146C403.735 332.17 403.74 332.19 403.743 332.205C403.74 332.208 403.737 332.212 403.733 332.215C403.719 332.229 403.717 332.23 403.716 332.23C403.716 332.23 403.716 332.23 403.716 332.23C403.71 332.232 403.686 332.241 403.619 332.248C403.481 332.264 403.238 332.267 402.76 332.267C402.329 332.267 402.056 332.272 401.878 332.289C401.706 332.305 401.562 332.337 401.453 332.447C401.385 332.514 401.338 332.609 401.303 332.692C401.264 332.782 401.228 332.892 401.193 333.015C401.123 333.26 401.056 333.572 400.995 333.92C400.874 334.615 400.777 335.466 400.749 336.225L400.749 336.225C400.717 337.119 400.689 337.24 400.615 337.385C400.509 337.575 400.206 337.761 399.655 337.857C399.12 337.951 398.416 337.949 397.618 337.83L397.575 337.823C397.4 337.797 397.262 337.776 397.155 337.763C397.042 337.749 396.944 337.741 396.861 337.746C396.767 337.753 396.684 337.777 396.607 337.83C396.553 337.867 396.505 337.917 396.471 337.953C396.468 337.956 396.465 337.959 396.462 337.962C396.461 337.963 396.46 337.964 396.459 337.965C396.423 337.999 396.367 338.052 396.326 338.132C396.283 338.215 396.264 338.308 396.253 338.413C396.232 338.614 396.232 338.961 396.232 339.603V339.639V340.732H390.016C386.866 340.732 385.253 340.732 384.427 340.717C384.126 340.712 383.938 340.704 383.82 340.696M384.231 338.76L383.988 338.702L384.231 338.76C384.231 338.76 384.231 338.76 384.231 338.76ZM384.231 338.76C384.103 339.292 383.995 339.781 383.918 340.16C383.88 340.35 383.85 340.51 383.83 340.634C383.826 340.656 383.823 340.677 383.82 340.696M383.82 340.696C383.774 340.692 383.738 340.688 383.711 340.684C383.686 340.681 383.676 340.678 383.676 340.678C383.676 340.678 383.691 340.682 383.71 340.695C383.735 340.712 383.765 340.742 383.784 340.786C383.801 340.825 383.801 340.858 383.801 340.863C383.801 340.842 383.806 340.788 383.82 340.696Z" fill="black" stroke="black" stroke-width="0.5"/>
<path d="M393.014 317.727L393.014 317.727C391.739 317.514 390.406 317.721 389.227 318.31L389.226 318.311C388.641 318.606 388.331 318.833 387.792 319.343L387.791 319.343C387.222 319.889 386.866 320.357 386.553 320.972L386.552 320.973C385.533 323 385.656 325.216 386.884 327.052C387.032 327.276 387.321 327.601 387.615 327.896C387.908 328.19 388.22 328.468 388.418 328.591L388.637 328.728V329.977V331.289V331.318L388.65 331.345L389.171 332.385L389.171 332.386C389.316 332.673 389.459 332.941 389.573 333.142C389.631 333.242 389.682 333.327 389.723 333.39C389.744 333.422 389.764 333.45 389.781 333.472C389.79 333.483 389.799 333.494 389.809 333.504C389.818 333.512 389.833 333.526 389.853 333.537L389.853 333.537L389.855 333.538C389.877 333.55 389.901 333.555 389.913 333.557C389.93 333.561 389.948 333.563 389.968 333.566C390.009 333.571 390.061 333.575 390.122 333.579C390.245 333.586 390.411 333.593 390.605 333.598C390.993 333.608 391.496 333.613 391.999 333.612C392.502 333.612 393.005 333.606 393.393 333.595C393.587 333.59 393.753 333.583 393.876 333.575C393.938 333.571 393.99 333.566 394.031 333.561C394.051 333.558 394.07 333.555 394.087 333.552C394.099 333.549 394.124 333.543 394.146 333.531L394.086 333.422L394.146 333.531C394.165 333.521 394.18 333.507 394.188 333.499C394.198 333.489 394.207 333.478 394.216 333.467C394.234 333.446 394.253 333.418 394.274 333.388C394.315 333.326 394.366 333.242 394.423 333.142C394.538 332.942 394.682 332.673 394.833 332.374L394.833 332.374L394.834 332.373L395.348 331.333L395.361 331.306V331.277V329.971V329.971L395.366 328.726L395.612 328.56L395.613 328.56C395.782 328.445 396.11 328.175 396.34 327.951C398.214 326.183 398.66 323.36 397.451 320.984C396.873 319.838 395.899 318.877 394.743 318.299L394.742 318.299C394.16 318.01 393.605 317.827 393.014 317.727ZM389.363 327.794L389.362 327.793C388.012 327.011 387.151 325.599 387.055 324.027C386.914 321.559 388.684 319.326 391.125 318.898C394.278 318.351 397.124 320.861 396.944 324.027C396.898 324.727 396.747 325.288 396.426 325.914C396.014 326.702 395.389 327.366 394.636 327.799C394.469 327.894 394.345 327.979 394.271 328.104C394.197 328.23 394.186 328.379 394.186 328.566V328.736H393.849H393.511V327.474V326.212H393.849H394.311H394.436V326.087V325.624V325.162V325.037H394.311H391.999H389.687H389.562V325.162V325.624V326.087V326.212H389.687H390.149H390.487V327.474V328.736H390.149H389.812V328.566C389.812 328.379 389.801 328.231 389.727 328.104C389.654 327.978 389.53 327.892 389.363 327.794ZM391.999 328.736H391.662V327.474V326.212H391.999H392.337V327.474V328.736H391.999ZM394.186 330.586H391.999H389.812V330.248V329.911H391.999H394.186V330.248V330.586ZM391.999 332.435H390.516L390.319 332.042L390.178 331.761H391.999H393.82L393.679 332.042L393.482 332.435H391.999Z" fill="black" stroke="black" stroke-width="0.25"/>
<path d="M356.642 341.769C354.597 344.158 353.522 347.316 353.791 350.213C354.032 352.81 354.79 354.96 356.285 357.284L356.285 357.284C356.657 357.863 356.897 358.319 357.056 358.777C357.214 359.234 357.296 359.704 357.339 360.315C357.405 361.279 357.238 362.465 356.708 364.694L356.708 364.694C356.445 365.8 356.245 366.967 356.239 367.466L356.239 367.466V367.469C356.239 367.674 356.316 367.857 356.468 368.003L356.614 368.155L356.688 368.231H356.795H363.985H371.175H371.282L371.356 368.155L371.502 368.002C371.503 368.002 371.503 368.001 371.504 368.001C371.54 367.966 371.595 367.913 371.637 367.834C371.68 367.752 371.699 367.661 371.711 367.559C371.732 367.365 371.731 367.035 371.731 366.431V366.395V365.379L372.422 365.401C372.422 365.401 372.422 365.401 372.422 365.401C374.298 365.471 375.46 365.079 375.991 363.987C376.077 363.814 376.131 363.679 376.166 363.455C376.198 363.246 376.214 362.956 376.235 362.471C376.285 361.443 376.422 360.303 376.54 359.855L376.54 359.855L376.541 359.851L376.552 359.804L377.13 359.785C377.13 359.785 377.13 359.785 377.13 359.785C377.759 359.766 377.994 359.735 378.298 359.602L378.298 359.602L378.301 359.601C378.756 359.393 379.079 359.107 379.199 358.682C379.315 358.274 379.226 357.795 379.011 357.24L379.011 357.239C378.672 356.377 378.301 355.675 377.67 354.696L377.67 354.695C377.359 354.216 377.015 353.651 376.901 353.436C376.802 353.241 376.768 353.162 376.753 353.09C376.739 353.019 376.74 352.941 376.759 352.737L376.759 352.737L376.76 352.733C376.777 352.512 376.856 352.032 376.941 351.679L376.941 351.679L376.942 351.676C377.228 350.415 377.293 349.475 377.159 348.288C376.782 344.799 374.925 341.703 372.065 339.781C370.482 338.716 368.633 338.033 366.763 337.816L366.762 337.816C365.207 337.637 363.372 337.828 361.847 338.32L361.846 338.32C361.197 338.532 359.867 339.146 359.323 339.489M356.642 341.769C356.642 341.769 356.642 341.769 356.642 341.769L356.832 341.931L356.641 341.77C356.642 341.769 356.642 341.769 356.642 341.769ZM356.642 341.769C357.317 340.972 358.349 340.101 359.323 339.489M359.323 339.489C359.323 339.489 359.323 339.49 359.323 339.49L359.456 339.701L359.323 339.489ZM358.231 364.76C358.77 362.529 358.934 361.184 358.811 359.948L358.811 359.947C358.669 358.565 358.322 357.646 357.454 356.319L357.453 356.318C356.313 354.583 355.583 352.571 355.325 350.478C355.069 348.386 355.55 346.161 356.66 344.289C358.191 341.715 360.802 339.91 363.747 339.398L363.747 339.398C364.069 339.341 364.634 339.3 365.207 339.282C365.78 339.264 366.336 339.271 366.642 339.306C370.749 339.813 374.138 342.656 375.296 346.563L375.296 346.563C375.595 347.562 375.692 348.244 375.692 349.396C375.689 349.885 375.684 350.156 375.657 350.408C375.631 350.658 375.583 350.893 375.486 351.308L375.486 351.308L375.485 351.311C375.347 351.947 375.274 352.416 375.267 352.835L375.267 352.836C375.264 353.105 375.262 353.284 375.308 353.468C375.352 353.644 375.439 353.819 375.574 354.092L375.58 354.105L375.581 354.106C375.749 354.443 376.111 355.052 376.39 355.469C376.945 356.308 377.426 357.237 377.641 357.884L377.642 357.885C377.681 358.002 377.709 358.084 377.727 358.146C377.735 358.17 377.74 358.19 377.743 358.205C377.74 358.208 377.737 358.212 377.733 358.215C377.719 358.229 377.717 358.23 377.716 358.23C377.716 358.23 377.716 358.23 377.716 358.23C377.71 358.232 377.686 358.241 377.619 358.248C377.481 358.264 377.238 358.267 376.76 358.267C376.329 358.267 376.056 358.272 375.878 358.289C375.706 358.305 375.562 358.337 375.453 358.447C375.385 358.514 375.338 358.609 375.303 358.692C375.264 358.782 375.228 358.892 375.193 359.015C375.123 359.26 375.056 359.572 374.995 359.92C374.874 360.615 374.777 361.466 374.749 362.225L374.749 362.225C374.717 363.119 374.689 363.24 374.615 363.385C374.509 363.575 374.206 363.761 373.655 363.857C373.12 363.951 372.416 363.949 371.618 363.83L371.575 363.823C371.4 363.797 371.262 363.776 371.155 363.763C371.042 363.749 370.944 363.741 370.861 363.746C370.767 363.753 370.684 363.777 370.607 363.83C370.553 363.867 370.505 363.917 370.471 363.953C370.468 363.956 370.465 363.959 370.462 363.962C370.461 363.963 370.46 363.964 370.459 363.965C370.423 363.999 370.367 364.052 370.326 364.132C370.283 364.215 370.264 364.308 370.253 364.413C370.232 364.614 370.232 364.961 370.232 365.603V365.639V366.732H364.016C360.866 366.732 359.253 366.732 358.427 366.717C358.126 366.712 357.938 366.704 357.82 366.696M358.231 364.76L357.988 364.702L358.231 364.76C358.231 364.76 358.231 364.76 358.231 364.76ZM358.231 364.76C358.103 365.292 357.995 365.781 357.918 366.16C357.88 366.35 357.85 366.51 357.83 366.634C357.826 366.656 357.823 366.677 357.82 366.696M357.82 366.696C357.774 366.692 357.738 366.688 357.711 366.684C357.686 366.681 357.676 366.678 357.676 366.678C357.676 366.678 357.691 366.682 357.71 366.695C357.735 366.712 357.765 366.742 357.784 366.786C357.801 366.825 357.801 366.858 357.801 366.863C357.801 366.842 357.806 366.788 357.82 366.696Z" fill="black" stroke="black" stroke-width="0.5"/>
<path d="M367.014 343.727L367.014 343.727C365.739 343.514 364.406 343.721 363.227 344.31L363.226 344.311C362.641 344.606 362.331 344.833 361.792 345.343L361.791 345.343C361.222 345.889 360.866 346.357 360.553 346.972L360.552 346.973C359.533 349 359.656 351.216 360.884 353.052C361.032 353.276 361.321 353.601 361.615 353.896C361.908 354.19 362.22 354.468 362.418 354.591L362.637 354.728V355.977V357.289V357.318L362.65 357.345L363.171 358.385L363.171 358.386C363.316 358.673 363.459 358.941 363.573 359.142C363.631 359.242 363.682 359.327 363.723 359.39C363.744 359.422 363.764 359.45 363.781 359.472C363.79 359.483 363.799 359.494 363.809 359.504C363.818 359.512 363.833 359.526 363.853 359.537L363.853 359.537L363.855 359.538C363.877 359.55 363.901 359.555 363.913 359.557C363.93 359.561 363.948 359.563 363.968 359.566C364.009 359.571 364.061 359.575 364.122 359.579C364.245 359.586 364.411 359.593 364.605 359.598C364.993 359.608 365.496 359.613 365.999 359.612C366.502 359.612 367.005 359.606 367.393 359.595C367.587 359.59 367.753 359.583 367.876 359.575C367.938 359.571 367.99 359.566 368.031 359.561C368.051 359.558 368.07 359.555 368.087 359.552C368.099 359.549 368.124 359.543 368.146 359.531L368.086 359.422L368.146 359.531C368.165 359.521 368.18 359.507 368.188 359.499C368.198 359.489 368.207 359.478 368.216 359.467C368.234 359.446 368.253 359.418 368.274 359.388C368.315 359.326 368.366 359.242 368.423 359.142C368.538 358.942 368.682 358.673 368.833 358.374L368.833 358.374L368.834 358.373L369.348 357.333L369.361 357.306V357.277V355.971V355.971L369.366 354.726L369.612 354.56L369.613 354.56C369.782 354.445 370.11 354.175 370.34 353.951C372.214 352.183 372.66 349.36 371.451 346.984C370.873 345.838 369.899 344.877 368.743 344.299L368.742 344.299C368.16 344.01 367.605 343.827 367.014 343.727ZM363.363 353.794L363.362 353.793C362.012 353.011 361.151 351.599 361.055 350.027C360.914 347.559 362.684 345.326 365.125 344.898C368.278 344.351 371.124 346.861 370.944 350.027C370.898 350.727 370.747 351.288 370.426 351.914C370.014 352.702 369.389 353.366 368.636 353.799C368.469 353.894 368.345 353.979 368.271 354.104C368.197 354.23 368.186 354.379 368.186 354.566V354.736H367.849H367.511V353.474V352.212H367.849H368.311H368.436V352.087V351.624V351.162V351.037H368.311H365.999H363.687H363.562V351.162V351.624V352.087V352.212H363.687H364.149H364.487V353.474V354.736H364.149H363.812V354.566C363.812 354.379 363.801 354.231 363.727 354.104C363.654 353.978 363.53 353.892 363.363 353.794ZM365.999 354.736H365.662V353.474V352.212H365.999H366.337V353.474V354.736H365.999ZM368.186 356.586H365.999H363.812V356.248V355.911H365.999H368.186V356.248V356.586ZM365.999 358.435H364.516L364.319 358.042L364.178 357.761H365.999H367.82L367.679 358.042L367.482 358.435H365.999Z" fill="black" stroke="black" stroke-width="0.25"/>
<path d="M329.642 317.769C327.597 320.158 326.522 323.316 326.791 326.213C327.032 328.81 327.79 330.96 329.285 333.284L329.285 333.284C329.657 333.863 329.897 334.319 330.056 334.777C330.214 335.234 330.296 335.704 330.339 336.315C330.405 337.279 330.238 338.465 329.708 340.694L329.708 340.694C329.445 341.8 329.245 342.967 329.239 343.466L329.239 343.466V343.469C329.239 343.674 329.316 343.857 329.468 344.003L329.614 344.155L329.688 344.231H329.795H336.985H344.175H344.282L344.356 344.155L344.502 344.002C344.503 344.002 344.503 344.001 344.504 344.001C344.54 343.966 344.595 343.913 344.637 343.834C344.68 343.752 344.699 343.661 344.711 343.559C344.732 343.365 344.731 343.035 344.731 342.431V342.395V341.379L345.422 341.401C345.422 341.401 345.422 341.401 345.422 341.401C347.298 341.471 348.46 341.079 348.991 339.987C349.077 339.814 349.131 339.679 349.166 339.455C349.198 339.246 349.214 338.956 349.235 338.471C349.285 337.443 349.422 336.303 349.54 335.855L349.54 335.855L349.541 335.851L349.552 335.804L350.13 335.785C350.13 335.785 350.13 335.785 350.13 335.785C350.759 335.766 350.994 335.735 351.298 335.602L351.298 335.602L351.301 335.601C351.756 335.393 352.079 335.107 352.199 334.682C352.315 334.274 352.226 333.795 352.011 333.24L352.011 333.239C351.672 332.377 351.301 331.675 350.67 330.696L350.67 330.695C350.359 330.216 350.015 329.651 349.901 329.436C349.802 329.241 349.768 329.162 349.753 329.09C349.739 329.019 349.74 328.941 349.759 328.737L349.759 328.737L349.76 328.733C349.777 328.512 349.856 328.032 349.941 327.679L349.941 327.679L349.942 327.676C350.228 326.415 350.293 325.475 350.159 324.288C349.782 320.799 347.925 317.703 345.065 315.781C343.482 314.716 341.633 314.033 339.763 313.816L339.762 313.816C338.207 313.637 336.372 313.828 334.847 314.32L334.846 314.32C334.197 314.532 332.867 315.146 332.323 315.489M329.642 317.769C329.642 317.769 329.642 317.769 329.642 317.769L329.832 317.931L329.641 317.77C329.642 317.769 329.642 317.769 329.642 317.769ZM329.642 317.769C330.317 316.972 331.349 316.101 332.323 315.489M332.323 315.489C332.323 315.489 332.323 315.49 332.323 315.49L332.456 315.701L332.323 315.489ZM331.231 340.76C331.77 338.529 331.934 337.184 331.811 335.948L331.811 335.947C331.669 334.565 331.322 333.646 330.454 332.319L330.453 332.318C329.313 330.583 328.583 328.571 328.325 326.478C328.069 324.386 328.55 322.161 329.66 320.289C331.191 317.715 333.802 315.91 336.747 315.398L336.747 315.398C337.069 315.341 337.634 315.3 338.207 315.282C338.78 315.264 339.336 315.271 339.642 315.306C343.749 315.813 347.138 318.656 348.296 322.563L348.296 322.563C348.595 323.562 348.692 324.244 348.692 325.396C348.689 325.885 348.684 326.156 348.657 326.408C348.631 326.658 348.583 326.893 348.486 327.308L348.486 327.308L348.485 327.311C348.347 327.947 348.274 328.416 348.267 328.835L348.267 328.836C348.264 329.105 348.262 329.284 348.308 329.468C348.352 329.644 348.439 329.819 348.574 330.092L348.58 330.105L348.581 330.106C348.749 330.443 349.111 331.052 349.39 331.469C349.945 332.308 350.426 333.237 350.641 333.884L350.642 333.885C350.681 334.002 350.709 334.084 350.727 334.146C350.735 334.17 350.74 334.19 350.743 334.205C350.74 334.208 350.737 334.212 350.733 334.215C350.719 334.229 350.717 334.23 350.716 334.23C350.716 334.23 350.716 334.23 350.716 334.23C350.71 334.232 350.686 334.241 350.619 334.248C350.481 334.264 350.238 334.267 349.76 334.267C349.329 334.267 349.056 334.272 348.878 334.289C348.706 334.305 348.562 334.337 348.453 334.447C348.385 334.514 348.338 334.609 348.303 334.692C348.264 334.782 348.228 334.892 348.193 335.015C348.123 335.26 348.056 335.572 347.995 335.92C347.874 336.615 347.777 337.466 347.749 338.225L347.749 338.225C347.717 339.119 347.689 339.24 347.615 339.385C347.509 339.575 347.206 339.761 346.655 339.857C346.12 339.951 345.416 339.949 344.618 339.83L344.575 339.823C344.4 339.797 344.262 339.776 344.155 339.763C344.042 339.749 343.944 339.741 343.861 339.746C343.767 339.753 343.684 339.777 343.607 339.83C343.553 339.867 343.505 339.917 343.471 339.953C343.468 339.956 343.465 339.959 343.462 339.962C343.461 339.963 343.46 339.964 343.459 339.965C343.423 339.999 343.367 340.052 343.326 340.132C343.283 340.215 343.264 340.308 343.253 340.413C343.232 340.614 343.232 340.961 343.232 341.603V341.639V342.732H337.016C333.866 342.732 332.253 342.732 331.427 342.717C331.126 342.712 330.938 342.704 330.82 342.696M331.231 340.76L330.988 340.702L331.231 340.76C331.231 340.76 331.231 340.76 331.231 340.76ZM331.231 340.76C331.103 341.292 330.995 341.781 330.918 342.16C330.88 342.35 330.85 342.51 330.83 342.634C330.826 342.656 330.823 342.677 330.82 342.696M330.82 342.696C330.774 342.692 330.738 342.688 330.711 342.684C330.686 342.681 330.676 342.678 330.676 342.678C330.676 342.678 330.691 342.682 330.71 342.695C330.735 342.712 330.765 342.742 330.784 342.786C330.801 342.825 330.801 342.858 330.801 342.863C330.801 342.842 330.806 342.788 330.82 342.696Z" fill="black" stroke="black" stroke-width="0.5"/>
<path d="M340.014 319.727L340.014 319.727C338.739 319.514 337.406 319.721 336.227 320.31L336.226 320.311C335.641 320.606 335.331 320.833 334.792 321.343L334.791 321.343C334.222 321.889 333.866 322.357 333.553 322.972L333.552 322.973C332.533 325 332.656 327.216 333.884 329.052C334.032 329.276 334.321 329.601 334.615 329.896C334.908 330.19 335.22 330.468 335.418 330.591L335.637 330.728V331.977V333.289V333.318L335.65 333.345L336.171 334.385L336.171 334.386C336.316 334.673 336.459 334.941 336.573 335.142C336.631 335.242 336.682 335.327 336.723 335.39C336.744 335.422 336.764 335.45 336.781 335.472C336.79 335.483 336.799 335.494 336.809 335.504C336.818 335.512 336.833 335.526 336.853 335.537L336.853 335.537L336.855 335.538C336.877 335.55 336.901 335.555 336.913 335.557C336.93 335.561 336.948 335.563 336.968 335.566C337.009 335.571 337.061 335.575 337.122 335.579C337.245 335.586 337.411 335.593 337.605 335.598C337.993 335.608 338.496 335.613 338.999 335.612C339.502 335.612 340.005 335.606 340.393 335.595C340.587 335.59 340.753 335.583 340.876 335.575C340.938 335.571 340.99 335.566 341.031 335.561C341.051 335.558 341.07 335.555 341.087 335.552C341.099 335.549 341.124 335.543 341.146 335.531L341.086 335.422L341.146 335.531C341.165 335.521 341.18 335.507 341.188 335.499C341.198 335.489 341.207 335.478 341.216 335.467C341.234 335.446 341.253 335.418 341.274 335.388C341.315 335.326 341.366 335.242 341.423 335.142C341.538 334.942 341.682 334.673 341.833 334.374L341.833 334.374L341.834 334.373L342.348 333.333L342.361 333.306V333.277V331.971V331.971L342.366 330.726L342.612 330.56L342.613 330.56C342.782 330.445 343.11 330.175 343.34 329.951C345.214 328.183 345.66 325.36 344.451 322.984C343.873 321.838 342.899 320.877 341.743 320.299L341.742 320.299C341.16 320.01 340.605 319.827 340.014 319.727ZM336.363 329.794L336.362 329.793C335.012 329.011 334.151 327.599 334.055 326.027C333.914 323.559 335.684 321.326 338.125 320.898C341.278 320.351 344.124 322.861 343.944 326.027C343.898 326.727 343.747 327.288 343.426 327.914C343.014 328.702 342.389 329.366 341.636 329.799C341.469 329.894 341.345 329.979 341.271 330.104C341.197 330.23 341.186 330.379 341.186 330.566V330.736H340.849H340.511V329.474V328.212H340.849H341.311H341.436V328.087V327.624V327.162V327.037H341.311H338.999H336.687H336.562V327.162V327.624V328.087V328.212H336.687H337.149H337.487V329.474V330.736H337.149H336.812V330.566C336.812 330.379 336.801 330.231 336.727 330.104C336.654 329.978 336.53 329.892 336.363 329.794ZM338.999 330.736H338.662V329.474V328.212H338.999H339.337V329.474V330.736H338.999ZM341.186 332.586H338.999H336.812V332.248V331.911H338.999H341.186V332.248V332.586ZM338.999 334.435H337.516L337.319 334.042L337.178 333.761H338.999H340.82L340.679 334.042L340.482 334.435H338.999Z" fill="black" stroke="black" stroke-width="0.25"/>
<path d="M298.642 332.769C296.597 335.158 295.522 338.316 295.791 341.213C296.032 343.81 296.79 345.96 298.285 348.284L298.285 348.284C298.657 348.863 298.897 349.319 299.056 349.777C299.214 350.234 299.296 350.704 299.339 351.315C299.405 352.279 299.238 353.465 298.708 355.694L298.708 355.694C298.445 356.8 298.245 357.967 298.239 358.466L298.239 358.466V358.469C298.239 358.674 298.316 358.857 298.468 359.003L298.614 359.155L298.688 359.231H298.795H305.985H313.175H313.282L313.356 359.155L313.502 359.002C313.503 359.002 313.503 359.001 313.504 359.001C313.54 358.966 313.595 358.913 313.637 358.834C313.68 358.752 313.699 358.661 313.711 358.559C313.732 358.365 313.731 358.035 313.731 357.431V357.395V356.379L314.422 356.401C314.422 356.401 314.422 356.401 314.422 356.401C316.298 356.471 317.46 356.079 317.991 354.987C318.077 354.814 318.131 354.679 318.166 354.455C318.198 354.246 318.214 353.956 318.235 353.471C318.285 352.443 318.422 351.303 318.54 350.855L318.54 350.855L318.541 350.851L318.552 350.804L319.13 350.785C319.13 350.785 319.13 350.785 319.13 350.785C319.759 350.766 319.994 350.735 320.298 350.602L320.298 350.602L320.301 350.601C320.756 350.393 321.079 350.107 321.199 349.682C321.315 349.274 321.226 348.795 321.011 348.24L321.011 348.239C320.672 347.377 320.301 346.675 319.67 345.696L319.67 345.695C319.359 345.216 319.015 344.651 318.901 344.436C318.802 344.241 318.768 344.162 318.753 344.09C318.739 344.019 318.74 343.941 318.759 343.737L318.759 343.737L318.76 343.733C318.777 343.512 318.856 343.032 318.941 342.679L318.941 342.679L318.942 342.676C319.228 341.415 319.293 340.475 319.159 339.288C318.782 335.799 316.925 332.703 314.065 330.781C312.482 329.716 310.633 329.033 308.763 328.816L308.762 328.816C307.207 328.637 305.372 328.828 303.847 329.32L303.846 329.32C303.197 329.532 301.867 330.146 301.323 330.489M298.642 332.769C298.642 332.769 298.642 332.769 298.642 332.769L298.832 332.931L298.641 332.77C298.642 332.769 298.642 332.769 298.642 332.769ZM298.642 332.769C299.317 331.972 300.349 331.101 301.323 330.489M301.323 330.489C301.323 330.489 301.323 330.49 301.323 330.49L301.456 330.701L301.323 330.489ZM300.231 355.76C300.77 353.529 300.934 352.184 300.811 350.948L300.811 350.947C300.669 349.565 300.322 348.646 299.454 347.319L299.453 347.318C298.313 345.583 297.583 343.571 297.325 341.478C297.069 339.386 297.55 337.161 298.66 335.289C300.191 332.715 302.802 330.91 305.747 330.398L305.747 330.398C306.069 330.341 306.634 330.3 307.207 330.282C307.78 330.264 308.336 330.271 308.642 330.306C312.749 330.813 316.138 333.656 317.296 337.563L317.296 337.563C317.595 338.562 317.692 339.244 317.692 340.396C317.689 340.885 317.684 341.156 317.657 341.408C317.631 341.658 317.583 341.893 317.486 342.308L317.486 342.308L317.485 342.311C317.347 342.947 317.274 343.416 317.267 343.835L317.267 343.836C317.264 344.105 317.262 344.284 317.308 344.468C317.352 344.644 317.439 344.819 317.574 345.092L317.58 345.105L317.581 345.106C317.749 345.443 318.111 346.052 318.39 346.469C318.945 347.308 319.426 348.237 319.641 348.884L319.642 348.885C319.681 349.002 319.709 349.084 319.727 349.146C319.735 349.17 319.74 349.19 319.743 349.205C319.74 349.208 319.737 349.212 319.733 349.215C319.719 349.229 319.717 349.23 319.716 349.23C319.716 349.23 319.716 349.23 319.716 349.23C319.71 349.232 319.686 349.241 319.619 349.248C319.481 349.264 319.238 349.267 318.76 349.267C318.329 349.267 318.056 349.272 317.878 349.289C317.706 349.305 317.562 349.337 317.453 349.447C317.385 349.514 317.338 349.609 317.303 349.692C317.264 349.782 317.228 349.892 317.193 350.015C317.123 350.26 317.056 350.572 316.995 350.92C316.874 351.615 316.777 352.466 316.749 353.225L316.749 353.225C316.717 354.119 316.689 354.24 316.615 354.385C316.509 354.575 316.206 354.761 315.655 354.857C315.12 354.951 314.416 354.949 313.618 354.83L313.575 354.823C313.4 354.797 313.262 354.776 313.155 354.763C313.042 354.749 312.944 354.741 312.861 354.746C312.767 354.753 312.684 354.777 312.607 354.83C312.553 354.867 312.505 354.917 312.471 354.953C312.468 354.956 312.465 354.959 312.462 354.962C312.461 354.963 312.46 354.964 312.459 354.965C312.423 354.999 312.367 355.052 312.326 355.132C312.283 355.215 312.264 355.308 312.253 355.413C312.232 355.614 312.232 355.961 312.232 356.603V356.639V357.732H306.016C302.866 357.732 301.253 357.732 300.427 357.717C300.126 357.712 299.938 357.704 299.82 357.696M300.231 355.76L299.988 355.702L300.231 355.76C300.231 355.76 300.231 355.76 300.231 355.76ZM300.231 355.76C300.103 356.292 299.995 356.781 299.918 357.16C299.88 357.35 299.85 357.51 299.83 357.634C299.826 357.656 299.823 357.677 299.82 357.696M299.82 357.696C299.774 357.692 299.738 357.688 299.711 357.684C299.686 357.681 299.676 357.678 299.676 357.678C299.676 357.678 299.691 357.682 299.71 357.695C299.735 357.712 299.765 357.742 299.784 357.786C299.801 357.825 299.801 357.858 299.801 357.863C299.801 357.842 299.806 357.788 299.82 357.696Z" fill="black" stroke="black" stroke-width="0.5"/>
<path d="M309.014 334.727L309.014 334.727C307.739 334.514 306.406 334.721 305.227 335.31L305.226 335.311C304.641 335.606 304.331 335.833 303.792 336.343L303.791 336.343C303.222 336.889 302.866 337.357 302.553 337.972L302.552 337.973C301.533 340 301.656 342.216 302.884 344.052C303.032 344.276 303.321 344.601 303.615 344.896C303.908 345.19 304.22 345.468 304.418 345.591L304.637 345.728V346.977V348.289V348.318L304.65 348.345L305.171 349.385L305.171 349.386C305.316 349.673 305.459 349.941 305.573 350.142C305.631 350.242 305.682 350.327 305.723 350.39C305.744 350.422 305.764 350.45 305.781 350.472C305.79 350.483 305.799 350.494 305.809 350.504C305.818 350.512 305.833 350.526 305.853 350.537L305.853 350.537L305.855 350.538C305.877 350.55 305.901 350.555 305.913 350.557C305.93 350.561 305.948 350.563 305.968 350.566C306.009 350.571 306.061 350.575 306.122 350.579C306.245 350.586 306.411 350.593 306.605 350.598C306.993 350.608 307.496 350.613 307.999 350.612C308.502 350.612 309.005 350.606 309.393 350.595C309.587 350.59 309.753 350.583 309.876 350.575C309.938 350.571 309.99 350.566 310.031 350.561C310.051 350.558 310.07 350.555 310.087 350.552C310.099 350.549 310.124 350.543 310.146 350.531L310.086 350.422L310.146 350.531C310.165 350.521 310.18 350.507 310.188 350.499C310.198 350.489 310.207 350.478 310.216 350.467C310.234 350.446 310.253 350.418 310.274 350.388C310.315 350.326 310.366 350.242 310.423 350.142C310.538 349.942 310.682 349.673 310.833 349.374L310.833 349.374L310.834 349.373L311.348 348.333L311.361 348.306V348.277V346.971V346.971L311.366 345.726L311.612 345.56L311.613 345.56C311.782 345.445 312.11 345.175 312.34 344.951C314.214 343.183 314.66 340.36 313.451 337.984C312.873 336.838 311.899 335.877 310.743 335.299L310.742 335.299C310.16 335.01 309.605 334.827 309.014 334.727ZM305.363 344.794L305.362 344.793C304.012 344.011 303.151 342.599 303.055 341.027C302.914 338.559 304.684 336.326 307.125 335.898C310.278 335.351 313.124 337.861 312.944 341.027C312.898 341.727 312.747 342.288 312.426 342.914C312.014 343.702 311.389 344.366 310.636 344.799C310.469 344.894 310.345 344.979 310.271 345.104C310.197 345.23 310.186 345.379 310.186 345.566V345.736H309.849H309.511V344.474V343.212H309.849H310.311H310.436V343.087V342.624V342.162V342.037H310.311H307.999H305.687H305.562V342.162V342.624V343.087V343.212H305.687H306.149H306.487V344.474V345.736H306.149H305.812V345.566C305.812 345.379 305.801 345.231 305.727 345.104C305.654 344.978 305.53 344.892 305.363 344.794ZM307.999 345.736H307.662V344.474V343.212H307.999H308.337V344.474V345.736H307.999ZM310.186 347.586H307.999H305.812V347.248V346.911H307.999H310.186V347.248V347.586ZM307.999 349.435H306.516L306.319 349.042L306.178 348.761H307.999H309.82L309.679 349.042L309.482 349.435H307.999Z" fill="black" stroke="black" stroke-width="0.25"/>
<defs>
<clipPath id="clip0_54_26">
<rect width="330" height="249" fill="white" transform="translate(458 135)"/>
</clipPath>
<clipPath id="clip1_54_26">
<rect width="35" height="28" fill="white" transform="translate(240 200)"/>
</clipPath>
<clipPath id="clip2_54_26">
<rect width="35" height="28" fill="white" transform="translate(47 200)"/>
</clipPath>
</defs>
</svg>
